<svg width="24" height="24" viewBox="0 0 24 24" fill="none" xmlns="http://www.w3.org/2000/svg">
<path fill-rule="evenodd" clip-rule="evenodd" d="M4.21922 5H2.8C2.35817 5 2 4.64183 2 4.2V3.8C2 3.35817 2.35817 3 2.8 3H5C5.45887 3 5.85885 3.3123 5.97014 3.75746L6.7872 7.02568L21.0333 7.50056C21.6434 7.52089 22.0931 8.07831 21.9839 8.67889L20.9839 14.1789C20.9026 14.6261 20.5299 14.9622 20.0767 14.9971L7.0767 15.9971C6.55123 16.0375 6.08458 15.6631 6.01005 15.1414L5.01735 8.19249L4.21922 5ZM7.15861 9.03918L7.85745 13.9311L19.1541 13.0621L19.8089 9.46085L7.15861 9.03918Z" fill="currentColor"/>
<circle cx="9" cy="19" r="2" fill="currentColor"/>
<circle cx="17" cy="19" r="2" fill="currentColor"/>
</svg>
