<svg width="24" height="24" viewBox="0 0 24 24" fill="none" xmlns="http://www.w3.org/2000/svg">
<path fill-rule="evenodd" clip-rule="evenodd" d="M4 5.58C4 5.25968 4.25968 5 4.58 5H19.42C19.7403 5 20 5.25968 20 5.58V6.42C20 6.74032 19.7403 7 19.42 7H4.58C4.25968 7 4 6.74032 4 6.42V5.58ZM4 11.58C4 11.2597 4.25968 11 4.58 11H17.42C17.7403 11 18 11.2597 18 11.58V12.42C18 12.7403 17.7403 13 17.42 13H4.58C4.25968 13 4 12.7403 4 12.42V11.58ZM4.58 17C4.25968 17 4 17.2597 4 17.58V18.42C4 18.7403 4.25968 19 4.58 19H19.42C19.7403 19 20 18.7403 20 18.42V17.58C20 17.2597 19.7403 17 19.42 17H4.58Z" fill="#001E34"/>
</svg>
