<svg width="16" height="16" viewBox="0 0 16 16" fill="none" xmlns="http://www.w3.org/2000/svg">
<path d="M8.00004 2.66659C5.05452 2.66659 2.66671 5.0544 2.66671 7.99992C2.66671 10.9454 5.05452 13.3333 8.00004 13.3333C10.9456 13.3333 13.3334 10.9454 13.3334 7.99992C13.3334 5.0544 10.9456 2.66659 8.00004 2.66659ZM1.33337 7.99992C1.33337 4.31802 4.31814 1.33325 8.00004 1.33325C11.6819 1.33325 14.6667 4.31802 14.6667 7.99992C14.6667 11.6818 11.6819 14.6666 8.00004 14.6666C4.31814 14.6666 1.33337 11.6818 1.33337 7.99992ZM8.00004 3.99992C8.36823 3.99992 8.66671 4.2984 8.66671 4.66659V7.72378L10.4714 9.52851C10.7318 9.78886 10.7318 10.211 10.4714 10.4713C10.2111 10.7317 9.78899 10.7317 9.52864 10.4713L7.52864 8.47132C7.40361 8.3463 7.33337 8.17673 7.33337 7.99992V4.66659C7.33337 4.2984 7.63185 3.99992 8.00004 3.99992Z" fill="currentColor"/>
</svg>
