<svg width="16" height="16" viewBox="0 0 16 16" fill="none" xmlns="http://www.w3.org/2000/svg">
<path fill-rule="evenodd" clip-rule="evenodd" d="M2.28576 3.82859C2.28576 3.60768 2.46485 3.42859 2.68576 3.42859L13.3143 3.42859C13.5352 3.42859 13.7143 3.60768 13.7143 3.82859L13.7142 11.4442C13.7142 11.6651 13.5351 11.8442 13.3142 11.8442L9.82616 11.8442L8.28629 13.4212C8.12934 13.5819 7.87085 13.5819 7.7139 13.4212L6.17403 11.8442H2.68571C2.46479 11.8442 2.28571 11.6651 2.28571 11.4442L2.28576 3.82859ZM3.42862 4.55067L3.42856 10.7221H6.65158L8.0001 12.0627L9.34861 10.7221L12.5714 10.7221L12.5714 4.55067L3.42862 4.55067Z" fill="#67859B"/>
<path fill-rule="evenodd" clip-rule="evenodd" d="M11.4286 6.68566C11.4286 6.90658 11.2495 7.08566 11.0286 7.08566H4.97144C4.75053 7.08566 4.57144 6.90658 4.57144 6.68566V6.11423C4.57144 5.89332 4.75053 5.71423 4.97144 5.71423H11.0286C11.2495 5.71423 11.4286 5.89332 11.4286 6.11423V6.68566Z" fill="#67859B"/>
<path fill-rule="evenodd" clip-rule="evenodd" d="M8.00001 8.97143C8.00001 9.19234 7.82093 9.37143 7.60001 9.37143H4.97144C4.75053 9.37143 4.57144 9.19234 4.57144 8.97143V8.4C4.57144 8.17909 4.75053 8 4.97144 8H7.60001C7.82093 8 8.00001 8.17909 8.00001 8.4V8.97143Z" fill="#67859B"/>
</svg>
