<svg width="14" height="14" viewBox="0 0 14 14" fill="none" xmlns="http://www.w3.org/2000/svg">
<path fill-rule="evenodd" clip-rule="evenodd" d="M12.8666 7.00004C12.8666 10.2401 10.2401 12.8667 6.99998 12.8667C3.75991 12.8667 1.13331 10.2401 1.13331 7.00004C1.13331 3.75997 3.75991 1.13337 6.99998 1.13337C10.2401 1.13337 12.8666 3.75997 12.8666 7.00004ZM13.6666 7.00004C13.6666 10.6819 10.6819 13.6667 6.99998 13.6667C3.31808 13.6667 0.333313 10.6819 0.333313 7.00004C0.333313 3.31814 3.31808 0.333374 6.99998 0.333374C10.6819 0.333374 13.6666 3.31814 13.6666 7.00004ZM7.66665 10.3334C7.66665 10.7016 7.36817 11 6.99998 11C6.63179 11 6.33331 10.7016 6.33331 10.3334C6.33331 9.96519 6.63179 9.66671 6.99998 9.66671C7.36817 9.66671 7.66665 9.96519 7.66665 10.3334ZM6.49998 8.06671C6.49998 8.21398 6.61937 8.33337 6.76665 8.33337H7.23331C7.38059 8.33337 7.49998 8.21398 7.49998 8.06671V3.26671C7.49998 3.11943 7.38059 3.00004 7.23331 3.00004H6.76665C6.61937 3.00004 6.49998 3.11943 6.49998 3.26671V8.06671Z" fill="currentColor"/>
</svg>
