<svg width="20" height="18" viewBox="0 0 20 18" fill="none" xmlns="http://www.w3.org/2000/svg">
<path d="M10 1.53805C7.64418 -0.587077 4.02125 -0.509984 1.75736 1.76933C-0.585786 4.12843 -0.585786 7.95329 1.75736 10.3124L8.58579 17.1873C9.68296 18.2709 10.317 18.2709 11.4142 17.1873L18.2426 10.3124C20.5858 7.95329 20.5858 4.12843 18.2426 1.76933C15.9787 -0.509984 12.3558 -0.587077 10 1.53805ZM8.82843 3.19317L9.29289 3.6608C9.68342 4.05398 10.3166 4.05398 10.7071 3.6608L11.1716 3.19317C12.7337 1.62044 15.2663 1.62044 16.8284 3.19317C18.3905 4.7659 18.3905 7.31581 16.8284 8.88854L10 15.7635L3.17157 8.88854C1.60948 7.31581 1.60948 4.7659 3.17157 3.19317C4.73367 1.62044 7.26633 1.62044 8.82843 3.19317Z" fill="currentColor"/>
</svg>
