<svg width="25" height="24" viewBox="0 0 25 24" fill="none" xmlns="http://www.w3.org/2000/svg">
<path d="M12.5 4.53805C10.1442 2.41292 6.52125 2.49002 4.25736 4.76933C1.91421 7.12843 1.91421 10.9533 4.25736 13.3124L11.0858 20.1873C12.183 21.2709 12.817 21.2709 13.9142 20.1873L20.7426 13.3124C23.0858 10.9533 23.0858 7.12843 20.7426 4.76933C18.4787 2.49002 14.8558 2.41292 12.5 4.53805ZM11.3284 6.19317L11.7929 6.6608C12.1834 7.05398 12.8166 7.05398 13.2071 6.6608L13.6716 6.19317C15.2337 4.62044 17.7663 4.62044 19.3284 6.19317C20.8905 7.7659 20.8905 10.3158 19.3284 11.8885L12.5 18.7635L5.67157 11.8885C4.10948 10.3158 4.10948 7.7659 5.67157 6.19317C7.23367 4.62044 9.76633 4.62044 11.3284 6.19317Z" fill="currentColor"/>
</svg>
