<svg width="20" height="18" viewBox="0 0 20 18" fill="none" xmlns="http://www.w3.org/2000/svg">
<path fill-rule="evenodd" clip-rule="evenodd" d="M7 2C5.89543 2 5 2.89543 5 4C5 5.10457 5.89543 6 7 6H9V4C9 2.89543 8.10457 2 7 2ZM3 4C3 4.72857 3.19479 5.41165 3.53513 6H0.799999C0.358171 6 0 6.35817 0 6.8V7.2C0 7.64183 0.358172 8 0.8 8H2.00897C2.00303 8.06587 2 8.13258 2 8.2V15.8C2 17.015 2.98497 18 4.2 18H15.8C17.015 18 18 17.015 18 15.8V8.2C18 8.13258 17.997 8.06587 17.991 8H19.2C19.6418 8 20 7.64183 20 7.2V6.8C20 6.35817 19.6418 6 19.2 6H16.4649C16.8052 5.41165 17 4.72857 17 4C17 1.79086 15.2091 0 13 0C11.8053 0 10.7329 0.523756 10 1.35418C9.26706 0.523756 8.19469 0 7 0C4.79086 0 3 1.79086 3 4ZM4 8.2C4 8.08954 4.08954 8 4.2 8H7H9V16H4.2C4.08954 16 4 15.9105 4 15.8V8.2ZM11 16H15.8C15.9105 16 16 15.9105 16 15.8V8.2C16 8.08954 15.9105 8 15.8 8H13H11V16ZM15 4C15 5.10457 14.1046 6 13 6H11V4C11 2.89543 11.8954 2 13 2C14.1046 2 15 2.89543 15 4Z" fill="currentColor"/>
</svg>
