<svg width="16" height="16" viewBox="0 0 16 16" fill="none" xmlns="http://www.w3.org/2000/svg">
<path fill-rule="evenodd" clip-rule="evenodd" d="M6 9.46675C6 9.02492 6.35817 8.66675 6.8 8.66675H9.2C9.64183 8.66675 10 9.02492 10 9.46675V13.3334H8.66667V10.0001H7.33333V13.3334H6V9.46675Z" fill="currentColor"/>
<path fill-rule="evenodd" clip-rule="evenodd" d="M2.66663 6H3.99996V12.6667H12V6H13.3333V13.2C13.3333 13.6418 12.9751 14 12.5333 14H3.46663C3.0248 14 2.66663 13.6418 2.66663 13.2V6Z" fill="currentColor"/>
<path fill-rule="evenodd" clip-rule="evenodd" d="M7.99997 1.10303L14.6171 7.05843C14.8908 7.30474 14.9129 7.72626 14.6666 7.99994C14.4203 8.27361 13.9988 8.29579 13.7251 8.04949L7.99997 2.89684L2.27481 8.04949C2.00114 8.29579 1.57961 8.27361 1.33331 7.99994C1.087 7.72626 1.10918 7.30474 1.38286 7.05843L7.99997 1.10303Z" fill="currentColor"/>
</svg>
