<svg width="15" height="18" viewBox="0 0 15 18" fill="none" xmlns="http://www.w3.org/2000/svg">
<path fill-rule="evenodd" clip-rule="evenodd" d="M7.49586 2.49868C7.40654 2.54236 7.28775 2.61537 7.05834 2.75875L2.40567 5.66667L7.50001 8.85063L12.5943 5.66667L7.94167 2.75875C7.71226 2.61536 7.59348 2.54236 7.50415 2.49868C7.50274 2.49799 7.50136 2.49732 7.50001 2.49666C7.49866 2.49732 7.49728 2.49799 7.49586 2.49868ZM13.3333 7.17021L8.33334 10.2952V14.9965L12.9417 12.1163C13.1464 11.9883 13.2503 11.9223 13.3202 11.8687C13.3214 11.8678 13.3225 11.8669 13.3237 11.8661C13.3238 11.8647 13.3239 11.8633 13.3241 11.8618C13.3325 11.7741 13.3333 11.6511 13.3333 11.4096V7.17021ZM6.66667 14.9965V10.2952L1.66667 7.17021V11.4096C1.66667 11.6511 1.66755 11.7741 1.67594 11.8618C1.67608 11.8633 1.67622 11.8647 1.67636 11.8661C1.67747 11.8669 1.67861 11.8678 1.67979 11.8687C1.74969 11.9223 1.85358 11.9883 2.05834 12.1163L6.66667 14.9965ZM6.76374 1.00142C6.96644 0.902309 7.20885 0.81604 7.50001 0.81604C7.79117 0.81604 8.03358 0.902309 8.23627 1.00142C8.41324 1.08796 8.60681 1.20899 8.79829 1.32872C8.8072 1.33429 8.81611 1.33985 8.825 1.34542L14.6083 4.96C14.852 5.11228 15 5.37934 15 5.66667L15 11.438C15 11.6391 15.0001 11.8437 14.9832 12.0206C14.9637 12.2235 14.918 12.4503 14.7911 12.6794C14.6641 12.9085 14.4959 13.0675 14.3342 13.1915C14.1931 13.2996 14.0196 13.408 13.8491 13.5145L7.94167 17.2067C7.67145 17.3756 7.32857 17.3756 7.05834 17.2067L1.17501 13.5296C1.16699 13.5246 1.15897 13.5196 1.15093 13.5145C0.980413 13.408 0.806872 13.2996 0.665839 13.1915C0.504073 13.0675 0.335892 12.9085 0.208936 12.6794C0.0819808 12.4503 0.0362712 12.2235 0.0168549 12.0206C-7.26292e-05 11.8437 -3.41837e-05 11.639 3.56588e-06 11.438C5.35402e-06 11.4285 7.14216e-06 11.419 7.14216e-06 11.4096V5.66667C7.14216e-06 5.37934 0.148024 5.11228 0.391675 4.96L6.17501 1.34542C6.18391 1.33985 6.19282 1.33428 6.20173 1.32871C6.39321 1.20898 6.58677 1.08795 6.76374 1.00142Z" fill="currentColor"/>
</svg>
