<svg width="24" height="24" viewBox="0 0 24 24" fill="none" xmlns="http://www.w3.org/2000/svg">
<path fill-rule="evenodd" clip-rule="evenodd" d="M8.621 4.047C9.46 4.009 9.728 4 11.863 4C13.998 4 14.266 4.009 15.105 4.047C15.942 4.085 16.514 4.218 17.014 4.412C17.531 4.613 17.97 4.882 18.407 5.319C18.844 5.756 19.113 6.195 19.314 6.712C19.508 7.213 19.641 7.784 19.679 8.621C19.717 9.46 19.726 9.728 19.726 11.863C19.726 13.999 19.717 14.266 19.679 15.105C19.641 15.942 19.508 16.514 19.314 17.014C19.113 17.531 18.844 17.97 18.407 18.407C17.97 18.844 17.531 19.113 17.014 19.314C16.513 19.508 15.942 19.641 15.105 19.679C14.266 19.717 13.999 19.726 11.863 19.726C9.727 19.726 9.46 19.717 8.621 19.679C7.784 19.641 7.212 19.508 6.712 19.314C6.195 19.113 5.756 18.844 5.319 18.407C4.882 17.97 4.613 17.531 4.412 17.014C4.218 16.513 4.085 15.942 4.047 15.105C4.009 14.266 4 13.998 4 11.863C4 9.727 4.009 9.46 4.047 8.621C4.085 7.784 4.218 7.212 4.412 6.712C4.613 6.195 4.882 5.756 5.319 5.319C5.756 4.882 6.195 4.613 6.712 4.412C7.213 4.218 7.784 4.085 8.621 4.047ZM15.04 5.463C14.211 5.425 13.962 5.417 11.863 5.417C9.764 5.417 9.515 5.425 8.686 5.463C7.919 5.498 7.503 5.626 7.226 5.734C6.859 5.876 6.597 6.047 6.322 6.322C6.047 6.597 5.877 6.859 5.734 7.226C5.626 7.503 5.498 7.919 5.463 8.686C5.425 9.515 5.417 9.764 5.417 11.863C5.417 13.962 5.425 14.211 5.463 15.04C5.498 15.807 5.626 16.223 5.734 16.5C5.876 16.867 6.047 17.129 6.322 17.404C6.597 17.679 6.859 17.849 7.226 17.992C7.503 18.1 7.919 18.228 8.686 18.263C9.515 18.301 9.764 18.309 11.863 18.309C13.962 18.309 14.211 18.301 15.04 18.263C15.807 18.228 16.223 18.1 16.5 17.992C16.867 17.85 17.129 17.679 17.404 17.404C17.679 17.129 17.849 16.867 17.992 16.5C18.1 16.223 18.228 15.807 18.263 15.04C18.301 14.211 18.309 13.962 18.309 11.863C18.309 9.764 18.301 9.515 18.263 8.686C18.228 7.919 18.1 7.503 17.992 7.226C17.85 6.859 17.679 6.597 17.404 6.322C17.129 6.047 16.867 5.877 16.5 5.734C16.223 5.626 15.807 5.498 15.04 5.463ZM7.82495 11.862C7.82495 9.63295 9.63295 7.82495 11.863 7.82495C14.093 7.82495 15.901 9.63295 15.901 11.862C15.901 14.092 14.093 15.9 11.863 15.9C9.63295 15.9 7.82495 14.092 7.82495 11.862ZM9.24195 11.862C9.24195 13.31 10.416 14.483 11.863 14.483C13.31 14.483 14.484 13.31 14.484 11.862C14.484 10.414 13.31 9.24095 11.863 9.24095C10.415 9.24095 9.24195 10.415 9.24195 11.862ZM17.0029 7.66492C17.0029 8.18573 16.5807 8.60792 16.0599 8.60792C15.5391 8.60792 15.1169 8.18573 15.1169 7.66492C15.1169 7.14412 15.5391 6.72192 16.0599 6.72192C16.5807 6.72192 17.0029 7.14412 17.0029 7.66492Z" fill="currentColor"/>
</svg>
