<svg width="24" height="24" viewBox="0 0 24 24" fill="none" xmlns="http://www.w3.org/2000/svg">
<path fill-rule="evenodd" clip-rule="evenodd" d="M2.66667 2.66667V13.2258L8 8.95915L14.5677 14.2133L17.3333 11.4477L21.3333 15.4477V2.66667H2.66667ZM2.66667 21.3333V16.6408L8 12.3741L14.7656 17.7866L17.3333 15.2189L21.3333 19.2189V21.3333H2.66667ZM0 2.4C0 1.07452 1.07452 0 2.4 0H21.6C22.9255 0 24 1.07452 24 2.4V21.6C24 22.9255 22.9255 24 21.6 24H2.4C1.07452 24 0 22.9255 0 21.6V2.4ZM16.6667 9.33333C17.7712 9.33333 18.6667 8.4379 18.6667 7.33333C18.6667 6.22876 17.7712 5.33333 16.6667 5.33333C15.5621 5.33333 14.6667 6.22876 14.6667 7.33333C14.6667 8.4379 15.5621 9.33333 16.6667 9.33333Z" fill="#B3C2CD"/>
</svg>
