<svg width="14" height="12" viewBox="0 0 14 12" fill="none" xmlns="http://www.w3.org/2000/svg">
<path fill-rule="evenodd" clip-rule="evenodd" d="M12.1924 9.80186C12.192 9.80008 12.1904 9.79414 12.1842 9.78395L7.03519 1.41689C7.0289 1.40667 7.0239 1.40348 7.0208 1.40182C7.01624 1.39936 7.00897 1.39706 6.99971 1.39706C6.99045 1.39706 6.98318 1.39936 6.97861 1.40182C6.97551 1.40349 6.97051 1.40667 6.96422 1.41689L1.81526 9.78395C1.80899 9.79414 1.80739 9.80008 1.80697 9.80186C1.8065 9.80384 1.80644 9.80523 1.80657 9.8068C1.80691 9.81072 1.80924 9.82041 1.818 9.83155C1.82677 9.84269 1.83564 9.84723 1.83937 9.84848C1.84086 9.84898 1.84223 9.84925 1.84426 9.84926C1.84609 9.84927 1.85225 9.84911 1.86363 9.84541L6.60047 8.30594C6.85995 8.22161 7.13947 8.22161 7.39894 8.30594L12.1358 9.84541C12.1472 9.84911 12.1533 9.84927 12.1552 9.84926C12.1572 9.84925 12.1586 9.84898 12.16 9.84848C12.1638 9.84724 12.1726 9.84269 12.1814 9.83155C12.1902 9.82041 12.1925 9.81072 12.1928 9.8068C12.193 9.80523 12.1929 9.80384 12.1924 9.80186ZM13.2487 9.12883C13.8785 10.1522 12.8922 11.4056 11.7494 11.0342L7.01259 9.49473C7.00422 9.49201 6.9952 9.49201 6.98683 9.49473L2.24998 11.0342C1.10725 11.4056 0.120948 10.1522 0.750688 9.12882L5.89965 0.761764C6.40402 -0.0578452 7.59539 -0.0578466 8.09977 0.761764L13.2487 9.12883Z" fill="currentColor"/>
</svg>
