<svg width="18" height="19" viewBox="0 0 18 19" fill="none" xmlns="http://www.w3.org/2000/svg">
<path fill-rule="evenodd" clip-rule="evenodd" d="M13.0419 8.76378C13.8989 7.84843 14.1768 6.43307 13.8905 4.44095C13.4904 1.66043 11.6617 0 8.99921 0C6.33671 0 4.50801 1.66043 4.10795 4.44291C3.8216 6.43307 4.09953 7.84843 4.9565 8.76378C5.9756 9.85335 7.57268 10 8.99921 10C10.4257 10 12.0228 9.85236 13.0419 8.76378ZM11.974 4.68225C12.1793 6.11017 11.9449 6.90044 11.5251 7.34883C10.9945 7.9156 10.098 8.05008 8.99913 8.05008C7.89975 8.05008 7.0036 7.91594 6.47316 7.34883C6.05333 6.90039 5.81904 6.10998 6.02425 4.68378C6.15645 3.76433 6.51423 3.09145 7.00005 2.6502C7.4826 2.21193 8.14836 1.95001 8.99913 1.95001C9.8499 1.95001 10.5157 2.21194 10.9983 2.6501C11.4841 3.0912 11.8418 3.7637 11.974 4.68225ZM2.40023 16.3447C3.01824 14.9637 4.40435 14 6.01733 14H11.9809C13.5939 14 14.98 14.9637 15.598 16.3447L13.6742 16.5329C10.5649 16.8372 7.43335 16.8372 4.32409 16.5329L2.40023 16.3447ZM11.9809 12H6.01733C2.70296 12 0.0250921 14.7037 0.0569215 18.0179C0.0575063 18.0788 0.103904 18.1295 0.164519 18.1354L4.1293 18.5234C7.36811 18.8404 10.6301 18.8404 13.869 18.5234L17.8337 18.1354C17.8944 18.1295 17.9407 18.0788 17.9413 18.0179C17.9732 14.7037 15.2953 12 11.9809 12Z" fill="currentColor"/>
</svg>
