<svg width="32" height="32" viewBox="0 0 32 32" fill="none" xmlns="http://www.w3.org/2000/svg">
<path d="M16 0C24.8365 0 32 7.16343 32 15.9999C32 24.8365 24.8365 32 16 32C7.16343 32 0 24.8365 0 15.9999C0 7.16343 7.16343 0 16 0Z" fill="#FFDD00"/>
<path fill-rule="evenodd" clip-rule="evenodd" d="M20.2198 19.7221L20.2443 19.716L20.2454 19.7158L20.2676 19.709L20.2873 19.7016L20.2897 19.7006L20.3059 19.6936L20.3109 19.6912L20.3276 19.6823L20.3293 19.6815L20.344 19.6724L20.3489 19.6694L20.3586 19.6625L20.3677 19.6556L20.376 19.6488L20.3814 19.644L20.391 19.6351L20.396 19.6301L20.4051 19.6204L20.4094 19.6155L20.4171 19.6061L20.4184 19.6045L20.4277 19.592L20.4296 19.5893L20.4387 19.575L20.4397 19.5734L20.4488 19.5573L20.4573 19.5401L20.4578 19.5391L20.4649 19.5228L20.4688 19.5129L20.473 19.5013L20.4778 19.4871L20.4794 19.4818L20.4831 19.4688L20.4849 19.4619L20.4851 19.461L20.4891 19.4444L20.4897 19.4418L20.4919 19.4315L20.4938 19.4215C20.5 19.3876 20.5036 19.3526 20.5058 19.3187L20.5059 19.3173L20.5077 19.2797V19.2782L20.5083 19.2612V19.2583L20.5087 19.243V19.2387L20.5089 19.225V19.2194C20.51 19.1098 20.5069 19.0213 20.5471 19.0038L20.5479 19.0036L20.554 19.0016C20.5637 18.9995 20.576 19.001 20.5902 19.0062L20.6012 19.0109L20.6024 19.0114L20.6136 19.017L20.6158 19.0182L20.6268 19.0247L20.6305 19.027L20.6412 19.0341L20.6464 19.0376L20.6568 19.0451L20.6637 19.0502L20.6735 19.0578L20.674 19.0581L20.6897 19.0706L20.6915 19.0721L20.7025 19.0811L20.7107 19.0882C20.7294 19.1042 20.7498 19.1227 20.7721 19.1437L20.7728 19.1335L20.7721 19.0789L20.7078 18.9502L20.5791 18.6926L20.5147 18.3708L20.4504 18.0811L20.3859 17.9202L20.0962 17.6305L19.9675 17.4695L19.8709 17.4052L19.8388 17.5018H19.7744L19.6778 17.4695L19.5812 17.4052L19.4525 17.3408L19.0664 17.2121L18.9376 17.1799L18.8088 17.1155H18.4226L18.3903 17.0511L18.326 16.8902L18.1972 16.7293L18.0364 16.6648L17.6179 16.6326L17.2639 16.6005H17.1351L17.0063 16.6648L16.8454 16.7293L16.6522 16.7936L16.4592 16.8581L16.427 16.9223L16.3626 16.9867H16.2982L16.266 16.9223V16.8581L16.3626 16.7614L16.427 16.6326V16.5039L16.3948 16.3752L16.3626 16.3431L16.3304 16.4074L16.266 16.5361L16.0408 16.8581L15.912 17.0189V17.1799L16.0085 17.373L16.1695 17.5018L15.9763 17.4374L15.8476 17.3086L15.8154 17.1477L15.7833 16.9546L15.8154 16.7614V16.5361L15.7833 16.5039L15.6545 16.6326L15.5901 16.8259L15.5258 17.0511L15.558 17.2121L15.5901 17.3086L15.558 17.4374L15.4935 17.534L15.4614 17.727L15.397 17.8558L15.3004 17.9202H15.2361V17.9845L15.2683 18.1454L15.2361 18.3708V18.5639L15.3004 18.6283L15.3649 18.6604L15.3326 18.3387L15.397 18.1776L15.4935 18.0166L15.6867 17.7914L15.7833 17.6948L15.912 17.5661L15.9442 17.5983L15.9763 17.6626L16.073 17.727H16.1695L16.2018 17.7593L16.073 17.9523L16.0408 18.1454L16.1051 18.3064L16.2018 18.4352L16.4592 18.6283L16.4913 18.6604L16.4592 18.6926L16.2982 18.6283L16.0408 18.4352L15.9763 18.3708L15.912 18.4673L15.8797 18.5317L15.912 18.6283H15.7189L15.6223 18.5961L15.558 18.5317V18.4673L15.4935 18.5961V18.7249L15.558 18.8535L15.5901 18.8858H15.5258L15.3649 18.8535L15.2039 18.6926L15.1718 18.5639L15.2039 18.403V18.1454L15.1073 18.0166L15.0108 17.9845L14.9464 17.9202L14.8821 17.7593H15.1395L15.2039 17.6626L15.1718 17.5018L15.1395 17.2764V17.0511L15.2361 16.8581L15.3649 16.6326L15.4614 16.4074L15.5901 16.2143L15.7833 16.1177L16.0085 16.0212L16.1695 15.9568V15.7637L16.2339 15.635L16.3948 15.4096L16.5557 15.2165L16.5879 15.0234L16.4592 15.1521L16.3304 15.2487H16.266V15.1843L16.3304 15.0234V14.444L16.266 14.3796L16.2018 14.3474V14.1865L15.9442 14.0578H15.8797L15.9442 14.1544L15.9763 14.2187L15.912 14.251L15.7833 14.2832L15.6867 14.2187L15.6223 14.0899L15.558 14.1865V14.2832L15.6867 14.3796L15.8154 14.444H15.7511L15.558 14.4118L15.4614 14.3153L15.397 14.2187V14.1865L15.3649 14.2187L15.3326 14.2832L15.2039 14.4762L15.1718 14.5728V14.6372L15.2683 14.7337L15.3649 14.7658H15.043L14.9142 14.6693L14.8498 14.5405V14.3153L14.8821 14.251L14.8498 14.1865L14.7533 14.1544H14.6245L14.528 14.2187L14.4314 14.3153L14.3992 14.4762L14.4314 14.5728L14.4958 14.6372L14.5923 14.7016L14.7533 14.7981L14.9787 15.0234L15.043 15.1843L15.0752 15.3774L15.1395 15.5062L15.3326 15.6027L15.4614 15.635L15.4935 15.6671L15.4614 15.7314L15.397 15.8602L15.3649 15.989L15.3004 16.0534L15.2039 16.0855L15.0752 16.1177L14.8821 16.15L14.7533 16.1821L14.5923 16.3431L14.5602 16.5039L14.4958 16.5683L14.3026 16.6971L14.2705 16.8259V16.8902L14.174 16.7936L14.1417 16.6326L14.174 16.5683L14.2705 16.5039L14.3992 16.4074L14.4314 16.3752V16.2143H14.2383L14.1095 16.2786L14.0131 16.4074L13.9165 16.5683L13.8199 16.7293V17.2443L13.7555 17.5018V17.6948L13.8843 17.8235L14.0774 17.8558L14.1901 17.8107L14.0452 17.6948L13.9808 17.4695L14.0452 17.1155L14.0774 17.1477L14.1095 17.1799H14.2061L14.174 17.2121L14.1417 17.3086L14.0774 17.5018L14.1417 17.6626L14.3026 17.727L14.528 17.6305L14.5923 17.534L14.6245 17.4052L14.5602 17.1477L14.4958 16.9546L14.528 16.8902H14.5923L14.689 16.9546L14.7533 17.0511L14.7854 17.3408L14.689 17.6305L14.5923 17.727L14.4636 17.7914L14.2265 17.8211L14.174 17.9523V18.1133L14.3992 18.3387L14.2705 18.3708H14.2061L14.0774 18.242L14.0131 18.1454L13.9487 18.1133L13.8843 18.242V18.4673L13.9165 18.6926L14.0131 18.8535L14.1095 18.9179L14.2383 18.9823L14.3026 19.0146L14.3349 19.0789L14.3669 19.1432H14.6245L14.689 19.2075L14.7533 19.3042L14.8821 19.3685H15.043L15.1718 19.2399L15.2683 19.1111H15.3649L15.4292 19.1432H15.558L15.6867 19.1754L15.8154 19.2399L15.912 19.2075L16.0085 19.1754L16.073 19.2399L16.1695 19.433L16.266 19.4973L16.2982 19.5295L16.3626 19.433L16.3948 19.3363V19.3042L16.427 19.3363L16.5879 19.4973L16.6845 19.5295L16.8454 19.4973L16.9419 19.4008L17.0708 19.0789L17.1996 19.0146H17.296L17.3282 19.0789L17.4248 19.1754L17.4891 19.2075L17.6501 19.2399H17.8753L17.9398 19.2075V19.1111L18.0364 18.9179L18.1328 18.7249L18.1007 18.5961L18.0684 18.5317L18.1328 18.4352L18.2295 18.3387L18.2939 18.242H18.3582L18.3903 18.403L18.4548 18.5961L18.5835 18.6604L18.6479 18.6926V18.7892L18.6157 18.9502L18.7123 19.1111L18.8088 19.2075H18.9697L19.034 19.1432L19.1307 19.0789L19.2595 18.9502L19.3237 18.9179L19.356 18.9502V19.2399L19.4525 19.3363L19.5491 19.4008L19.6457 19.433L19.6778 19.5295V19.6582L19.71 19.787L19.8066 19.8513L19.9675 19.8191L20.0962 19.6904L20.1607 19.6261L20.064 19.6582L19.9675 19.6261L19.9031 19.5295L19.8709 19.3042L19.9031 19.2075L19.9354 19.3685L19.9997 19.4973L20.0962 19.5295L20.2571 19.4973L20.2894 19.4651V19.4973L20.1928 19.5939V19.6261L20.1607 19.6904V19.7313C20.1816 19.7292 20.2013 19.726 20.2198 19.7221ZM19.8252 20.812L19.7927 20.8117L19.6466 20.7383L19.5417 20.6675L19.5071 20.6336L19.4063 20.5326H19.6022L19.7462 20.4755L19.8902 20.3889L19.9349 20.2992L19.885 20.1742L19.8085 20.0979L19.7361 20.0796L19.6934 20.1436L19.5879 20.2844L19.4592 20.3486L19.3829 20.4505V20.5498L19.4472 20.7431V20.8631L19.4428 20.8718L19.4782 20.8786C19.5696 20.8961 19.7196 20.8514 19.8252 20.812ZM18.1007 15.7958L17.9398 15.6993L18.0041 15.828L18.1007 15.989L18.0684 16.2143L18.0364 16.3431H18.0684L18.1328 16.2786L18.2295 16.0855V15.9568L18.1007 15.7958ZM17.103 10.8069L16.9742 11.0643L17.0385 11.161L17.1672 11.2255L17.296 11.3219L17.3282 11.4507L17.2316 11.676L17.5213 11.6438L17.6179 11.4828V11.2255L17.5857 11L17.5536 10.9357V10.9035L17.6179 10.9357L17.7144 11.0322L17.8431 11.1931L17.9398 11.4507L17.9719 11.6438L18.0364 11.7081H18.1328L18.1972 11.7403H18.326L18.4548 11.7081L18.68 11.6438L18.8088 11.5472L18.9053 11.3864L18.9376 11.2255V10.8714L18.9697 10.8391L19.034 10.9679L19.0664 11.1931L19.0019 11.515L18.841 11.9657H19.034L19.2272 12.0623L19.5169 12.2876L19.71 12.6416L19.7422 12.8669V13.0599L19.71 13.2209L19.6457 13.3175L19.5169 13.3819L19.356 13.4785L19.2916 13.5428L19.2595 13.7037L19.2916 14.0578L19.4203 14.3796L19.6778 14.6049L19.8388 14.6693L20.0319 14.7016L20.2249 14.7337L20.3537 14.7658L20.5791 14.9591H20.6433L20.6757 14.8303L20.6433 14.6049L20.4504 14.4118L20.3216 14.3474H19.9354L19.7744 14.2832L19.6457 14.0899L19.5812 13.8968L19.6135 13.8004L19.6457 13.8647L19.71 13.9934L19.8388 14.1544L19.9997 14.2187L20.2249 14.2832L20.4181 14.3474L20.6433 14.5084L20.74 14.6049V14.5728L20.6757 14.3153L20.6113 14.1544L20.4181 14.0256L20.1607 13.9613L20.0319 13.8968L19.8709 13.7359L19.7744 13.5428L19.7422 13.3819L19.8388 13.1244L19.9675 12.8347L19.9997 12.7059V12.5128L19.8709 12.1909L19.6778 11.9657L19.4525 11.8691L19.2272 11.8047L19.0985 11.7726V11.676L19.1628 11.4828L19.2272 11.1931V10.9679L19.195 10.8069L19.0019 10.5495L18.841 10.4529L18.7444 10.3885L18.7766 10.4529L18.8088 10.6138V10.8391L18.7444 11.0967L18.6157 11.2898L18.4869 11.4185L18.3582 11.4507H18.2295L18.1007 11.3864L18.0041 11.2576L17.9076 11.0643L17.8431 10.8391L17.7788 10.6138L17.6822 10.4851L17.457 10.3242H17.1996L17.2639 10.3563L17.4248 10.4851L17.5213 10.646V10.7426L17.457 10.8391L17.3604 10.9357H17.296L17.1672 10.8714L17.103 10.7426V10.8069ZM16.3948 10.5172H16.5879L16.7488 10.6138L16.8132 10.6782H16.8454L16.8776 10.646L16.8132 10.4208H16.9098L17.0063 10.4851L17.0708 10.5817L17.103 10.646H17.1351L17.0385 10.4529L16.9098 10.292L16.7488 10.2276H16.6201L16.4592 10.2598L16.2982 10.3242L16.2018 10.3885L16.1695 10.5172L16.2339 10.5495L16.3948 10.5172ZM15.8154 11.1931L15.8797 11.2576L15.9442 11.354L16.1051 11.3864H16.1695L16.2018 11.2255L16.1373 11.0322L15.9442 10.7426L15.8154 10.646L15.6867 10.5817H15.5901L15.5258 10.646L15.6545 10.8391L15.6867 10.9035L15.6545 11L15.5901 11.0322L15.397 10.9035L15.2683 10.8391L14.9464 10.6782H14.7533L14.528 10.7104L14.4958 10.7426L14.5602 10.8069L14.689 10.8714L14.8498 10.9679L15.1718 11.161L15.2683 11.2898L15.3004 11.4185V11.515L15.3649 11.5472L15.4935 11.4828L15.7511 11.1931H15.8154ZM16.3626 14.251V14.0899L16.3304 13.9613L16.2339 13.8647L16.073 13.8004H15.8476L15.6223 13.8325L15.4614 13.929L15.4292 13.9934H15.5258L15.7189 13.9613H15.912L16.073 13.9934L16.266 14.1222L16.3304 14.2187L16.3626 14.251ZM17.8753 16.1177L17.8431 15.9568L17.6501 15.7637H17.1351L17.0063 15.7958L16.9419 15.8602L16.8776 15.8925L16.8132 15.8602L16.7167 15.828L16.5557 15.8925L16.4592 15.989L16.4913 16.0212L16.5879 16.0855L16.6522 16.2465V16.4396L16.5879 16.6648L16.7167 16.6005L16.8454 16.5039L16.8776 16.3752V16.2143L16.8132 16.0212L16.9419 16.0534L17.0063 16.15L17.0385 16.2465L17.103 16.2786L17.1672 16.2143L17.1996 16.15L17.2316 15.9246L17.296 15.989L17.3282 16.15V16.3108L17.3604 16.3431H17.3925L17.5857 16.2786L17.7144 16.3108L17.811 16.3431L17.8753 16.3108V16.1177ZM18.1328 15.7958L18.3582 16.0212L18.4548 16.15V16.2786L18.4869 16.2143L18.5512 16.15H18.5835L18.7123 16.3431L18.8088 16.4396L18.9376 16.5039L19.034 16.5683L19.1307 16.6971L19.195 16.7936L19.3237 16.8902L19.4525 16.8259L19.4848 16.6971V16.6326L19.5169 16.7293L19.6457 17.1477L19.7422 17.2764L19.8388 17.3408L19.9031 17.3086V17.2764L19.8709 17.1799L19.7744 17.0511L19.7663 17.0307C19.7213 16.9561 19.694 16.8819 19.6993 16.8153L19.6996 16.8119L19.6778 16.6648L19.6457 16.4074L19.5491 16.2465L19.4848 16.0855V15.8602L19.4203 15.5705L19.2595 15.2487L19.2272 15.0556L19.2916 14.8303L19.356 14.5728L19.3237 14.3153L19.2272 14.1865L19.0664 14.0899L18.9053 14.0256L18.7766 13.9613H18.68L18.5512 14.0256L18.4548 14.0578H18.2939L18.326 14.2187L18.5191 14.1865H18.6479L18.7766 14.251L18.9697 14.3474L19.1307 14.4762L19.1628 14.5405L19.1307 14.6049L19.0664 14.5405L18.9697 14.444L18.68 14.2832L18.4226 14.3153L18.326 14.3474L18.2939 14.4118L18.326 14.444H18.3903L18.5191 14.3796L18.5835 14.4118L18.68 14.444L18.9376 14.5728L19.0664 14.7337L19.0985 14.8625L19.1307 15.0556V15.2165L19.0985 15.2487L19.0019 15.1843L18.841 15.0234L19.0019 14.9912L18.9697 14.7658L18.8981 14.6872L18.8353 14.657L18.8255 14.713L18.8682 14.8077L18.7766 14.8625H18.6479L18.5512 14.7981L18.4869 14.6049V14.5728L18.4226 14.5405L18.326 14.5728L18.3582 14.7337L18.5191 14.9591L18.6157 15.0556L18.6479 15.1521L18.6157 15.3131L18.5191 15.4741L18.4226 15.6027L18.326 15.6993L18.1972 15.7314L18.1007 15.7637L18.1328 15.7958ZM19.6457 18.1454L19.8066 17.9845L19.7744 18.049L19.6778 18.3064V18.4673L19.7422 18.5639L19.9031 18.5961L20.1607 18.6283H20.2249L20.1928 18.6604L19.9997 18.757L19.8388 18.7892L19.6778 18.7249L19.5812 18.6283L19.5491 18.4995V18.3064L19.6457 18.1454ZM18.6479 18.2099L18.7123 18.0811V17.9523L18.6479 17.7593L18.5835 17.5983L18.5512 17.4695L18.5835 17.4052L18.6157 17.4695L18.68 17.5661L18.841 17.6305L18.9053 17.6626L18.9376 17.727L18.9053 17.9202L18.8088 18.1133L18.6479 18.242V18.2099ZM14.9464 18.6604L14.9787 18.757V18.9502L14.8177 19.1432L14.7854 19.0467L14.8498 18.9179L14.8821 18.8858L14.7854 18.8535L14.5923 18.8214L14.3669 18.7892L14.2383 18.6926V18.6604L14.2705 18.6283L14.3669 18.5639L14.528 18.5317H14.689L14.8498 18.5639L14.9464 18.6604ZM16.5879 17.1477L16.6845 17.0834L16.7488 17.0189L16.8132 17.0511L16.9098 17.1477L16.9419 17.3086V17.4695L16.8776 17.6305L16.781 17.7593L16.8132 17.9202L16.9419 18.049L17.0385 18.0811H17.1996L17.2639 18.1133L17.1351 18.1776V18.242L17.103 18.3708L16.9742 18.4352L16.8454 18.4673H16.5879L16.4913 18.3708L16.4592 18.242V17.8235L16.427 17.6626L16.3304 17.534L16.266 17.4695L16.2339 17.373L16.266 17.2443L16.3304 17.1477H16.5879ZM17.3282 17.2764L17.3925 17.1477L17.457 17.0189L17.4891 16.9546L17.5213 16.9867V17.3408L17.5536 17.4695L17.6179 17.5661L17.7144 17.6305L17.811 17.727L17.9719 17.888L18.0041 18.0166L17.9719 18.1776L17.9398 18.1454V18.049L17.8753 17.9523L17.7788 17.8558L17.5536 17.727L17.3925 17.5661L17.3282 17.373V17.2764ZM14.2705 16.8902L14.3026 16.9546L14.2705 16.9223V16.8902ZM17.924 15.0803L17.9893 15.1565L17.9719 15.1521L17.924 15.0803ZM14.9787 12.6094L14.9464 13.0278L14.9787 13.0922L15.0108 13.1244H15.3004L15.3326 13.1565L15.3004 13.2531L15.1395 13.4785L15.0752 13.5749L15.043 13.6716L15.1718 13.8004L15.3004 13.8325L15.4292 13.7681L15.7189 13.6716H15.9442L16.0085 13.6392L16.0408 13.6071L16.0085 13.5428V13.4785L15.912 13.414L15.7189 13.3175L15.5258 13.1887L15.4614 13.1565V13.1244H15.5258L15.6867 13.1565L16.073 13.2853L16.2018 13.3175L16.266 13.2209L16.2982 13.1244L16.3626 13.0599L16.427 13.1244L16.5557 13.3819L16.7167 13.4463L16.9098 13.4785L17.1351 13.5428L17.296 13.6392L17.3282 13.8325L17.3604 14.0256L17.5213 14.1544L17.6501 14.3153L17.7788 14.5405L17.8431 14.8946L17.9076 15.0556L17.924 15.0803L17.8753 15.0234L17.7144 14.7016L17.6501 14.7658L17.6179 14.8625L17.5857 14.9912L17.5213 15.1199L17.3925 15.1521L17.1996 15.2165L17.0708 15.3131L17.0063 15.4417L17.0708 15.5062L17.1996 15.5384L17.457 15.5062L17.6179 15.4417L17.7467 15.4096H17.9076L18.0041 15.5062L18.0364 15.635V15.6993L18.0684 15.7314L18.1328 15.6993L18.2939 15.6027L18.4226 15.4417L18.4548 15.2808L18.4226 15.1843L18.3582 15.2808L18.2616 15.3131L18.0684 15.2487L17.9893 15.1565L18.2295 15.2165H18.326L18.3903 15.1843L18.4548 15.0234L18.3903 14.8946L18.326 14.8303L18.2295 14.7337L18.0684 14.5405L17.9719 14.2832L18.0041 14.0578L18.0684 13.8325L18.0364 13.6716L17.9398 13.5106L17.8753 13.3175V13.1565L17.9076 13.0922L17.9398 13.1565L18.0041 13.2853L18.1007 13.4463L18.1972 13.5428L18.2939 13.6071L18.3582 13.6392L18.3903 13.8325H18.5191L18.5835 13.7359L18.6157 13.6716H18.68L18.8088 13.8004L19.0019 13.8647H19.0664V13.8004L19.0019 13.7359L18.841 13.4463L18.68 13.0599L18.5191 12.6416L18.326 12.3197L18.0684 12.1266L17.811 12.03L17.5857 11.9657L17.4248 11.8691L17.3282 11.8047L17.1672 11.7726H16.781L16.3304 11.8047L15.9442 11.7726L15.7511 11.7403L15.558 11.7726L15.1395 11.9012L14.7854 12.1266L14.4958 12.3197L14.5923 12.4162L14.8821 12.2876L15.0752 12.2552L15.1073 12.2876L15.0752 12.3197L15.0108 12.4162L14.9787 12.6094ZM13.0152 13.2209V13.3497L13.0796 13.4785V13.5106H12.9508L12.9186 13.6071L12.9508 13.7359L13.0152 13.8325L13.1118 13.8647H13.0796L12.9831 13.8968L12.8865 13.8647L12.7899 13.8004V13.8647L12.8222 13.9613L12.8543 14.1544L12.7899 14.3153L12.6612 14.4118L12.5324 14.5728L12.468 14.7658L12.4359 15.0877L12.4036 15.2487L12.3072 15.4096L12.114 15.7958L12.0174 16.0534L11.9531 16.4074V16.8581L12.0496 17.4052L12.114 17.6626L12.1462 17.8558C12.1688 17.9464 12.1807 17.9977 12.1853 18.018C12.1793 17.9897 12.1624 17.905 12.1462 17.7914L12.114 17.4695V17.0834L12.1784 16.6971L12.3072 16.4074L12.4359 16.1821L12.5324 15.989V15.635L12.5002 15.5384L12.5324 15.4096L12.5968 15.2487L12.7256 14.9591L12.7577 14.7981L12.7256 14.7016V14.6693L12.7577 14.7337L13.0152 14.9912L13.1118 15.0556L13.1439 14.9912V14.8625L12.9831 14.444L12.9508 14.3153L12.9831 14.2832L13.0796 14.251L13.1762 14.1865L13.4336 13.7359L13.5302 13.6071L13.5945 13.2853V13.2209H13.6911L13.8521 13.1887L13.9487 13.0922L14.0131 12.9635L14.0452 12.7382V12.4485L13.9808 12.3519L13.8521 12.5772L13.6911 12.7059L13.5945 12.7704L13.4659 12.8025L13.2726 12.7382L13.1439 12.6094L13.0796 12.5772V12.7059L13.1118 12.8347L13.2726 12.9956L13.3371 13.0599V13.0922L13.2405 13.1244L13.1118 13.0922L13.0152 13.0599L12.9831 13.0922L13.0152 13.2209ZM12.6612 13.3497L12.7899 13.1887L12.8222 13.0278L12.8543 12.8347V12.6416L12.8865 12.5128L12.9508 12.4162H13.2083L13.4336 12.4485H13.5302L13.6268 12.384L13.6911 12.2552L13.6268 12.0623L13.5302 11.8691L13.1762 11.9657L12.7899 12.2231L12.4359 12.6094L12.0818 13.1244L11.76 13.7037L11.4702 14.3153L11.2449 14.9591L11.0841 15.5705L10.9875 16.2143C11.184 20.341 11.3737 17.0834 11.3093 16.4717L11.2772 15.9246L11.3415 15.4096L11.4702 14.9591L11.4381 15.635L11.4702 16.2786L11.5668 16.8259L11.6634 17.2443L11.76 17.534L11.8243 17.5983L11.8565 17.5661V17.4695L11.8243 17.3086L11.76 17.0834L11.6956 16.5361L11.7277 15.989L11.8565 15.4741L12.0174 14.9912L12.1784 14.5405L12.3393 14.1544L12.468 13.8325L12.5002 13.6392V13.5106L12.5324 13.4463L12.6612 13.3497ZM16.9617 10.0941C16.5807 9.73253 15.5263 10.7729 15.1452 10.4111C15.0883 9.11879 15.0979 8.95239 15.7119 7.9086C15.8069 7.76378 15.8917 7.62478 15.967 7.49143C17.0965 5.48935 16.1081 4.70002 15.9067 3.13044C16.3767 4.82059 17.5513 4.93318 16.9778 7.65946C16.9523 7.78112 16.8645 8.08315 16.904 7.98998L17.0233 7.70839C18.5068 3.85628 15.3955 4.72258 16.0313 1.62109C14.4664 4.52036 18.0268 4.47649 14.8865 8.14953C14.3833 8.73805 14.4205 9.75281 14.5323 10.4751L14.4751 10.4943L14.403 10.53L14.2208 10.6596C13.625 10.2443 12.8926 9.58951 12.8103 8.83736C12.2849 4.03366 9.87837 6.6579 8.83767 3.5319C8.93199 6.82517 11.9934 5.007 11.1103 9.75808C10.9366 10.6927 11.7896 11.7766 12.2576 12.2889C11.5553 12.2761 10.2108 12.1483 9.65636 11.3919C6.79939 7.49453 6.02746 10.9704 3.56309 8.78355C5.29155 11.5885 7.03374 8.4832 8.64447 13.0391C8.96124 13.9355 10.2419 14.4476 10.9034 14.6573C10.2889 14.9974 9.06045 15.5589 8.20208 15.1811C3.77917 13.2344 4.84861 16.6307 1.62109 15.9689C4.52034 17.5338 4.47648 13.9735 8.14946 17.1137C8.84958 17.7124 10.1533 17.5461 10.85 17.3995L10.8567 17.4804C10.4732 18.0961 9.72268 19.0931 8.83735 19.1898C4.03365 19.7154 6.65794 22.1218 3.53191 23.1626C6.82516 23.0682 5.00697 20.0069 9.75807 20.8899C10.6927 21.0636 11.7766 20.2106 12.2889 19.7427C12.276 20.4449 12.1483 21.7895 11.3919 22.344C7.49446 25.2009 10.9704 25.9728 8.78353 28.4371C11.5885 26.7087 8.48318 24.9665 13.0392 23.3557C13.6272 23.1479 14.0499 22.5251 14.3304 21.9345C14.3623 21.9856 14.3967 22.0368 14.4344 22.0883C14.4884 22.1623 14.5519 22.2265 14.6202 22.2873C15.0109 22.6344 15.1867 22.7548 15.2401 23.3296L15.2235 23.6889C15.3932 23.2313 15.3505 22.8548 15.4005 22.3689C15.4999 22.5406 15.7289 23.0016 15.7634 23.0658L15.9895 23.4854L16.1866 23.7809L16.2985 23.8942L16.4246 23.9362L16.4984 23.9177C16.4359 24.0655 16.3386 24.2701 16.2006 24.4944C16.0892 24.6752 15.9073 24.9577 15.7465 25.272C15.074 26.5871 15.951 27.4063 16.1149 28.4837C15.6697 27.8674 15.6526 27.8331 15.3616 27.5249C15.0704 27.2168 14.8136 26.4805 14.7623 25.8128C14.7128 25.1691 14.8091 24.7204 15.0203 24.1815C13.4348 28.1604 16.6108 27.2485 15.9689 30.3792C17.4343 27.664 14.4051 27.5301 16.5934 24.5073L16.6201 24.454C17.1547 23.7412 17.5294 23.3386 17.5376 22.3996L17.6051 22.3862L17.7549 22.3111L17.8471 22.173L17.7926 22.0639L17.6813 21.9899L17.5402 21.919L17.1771 21.8531C16.3116 21.7448 16.6483 21.137 17.4184 21.1337L17.5482 21.1625C17.8401 21.3571 19.0648 22.0196 19.1899 23.1629C19.7153 27.9666 22.1218 25.3423 23.1626 28.4684C23.0682 25.175 20.0068 26.9932 20.8899 22.2423C20.9459 21.9379 20.8943 21.6192 20.7826 21.3092C20.7782 22.0619 20.6727 22.3314 20.6023 22.7766C20.5321 23.2218 20.4735 24.042 20.5906 24.4521C20.7078 24.8622 20.7195 25.4363 21.071 25.7175C21.4225 25.9987 21.4343 26.0104 22.0435 26.7369C21.7037 26.4909 21.2117 26.3268 21.2117 26.3268C21.2117 26.3268 21.1999 26.3268 20.8133 26.069C20.4266 25.8113 20.1923 25.5535 19.9931 25.1785C19.794 24.8036 19.6533 24.3936 19.6533 23.9951C19.6533 23.5968 19.4658 22.5071 19.1729 21.9681C18.9758 21.6055 18.8573 21.4429 18.8008 21.3752L18.9071 21.2841L19.1939 21.1246L19.388 20.9637L19.4411 20.9897C19.6607 21.0973 19.7587 21.0538 19.935 20.8957C20.0432 20.8504 20.3171 20.7219 20.3559 20.6174C20.3668 20.5881 20.3752 20.5588 20.3825 20.5295C20.4271 20.3456 20.4131 20.1579 20.522 19.947L20.3995 20.1431L20.3001 20.3418L20.2663 20.4423L20.238 20.4985L20.1518 20.6124L20.0907 20.6529L20.1105 20.6282L20.2176 20.4855L20.2527 20.1692L20.2198 20.0372V19.7361C20.9424 19.7985 21.8983 20.0004 22.344 20.6083C25.2009 24.5058 25.9728 21.0298 28.4371 23.2167C26.7086 20.4117 24.9665 23.5171 23.3557 18.961C23.1804 18.4648 22.7095 18.0865 22.2118 17.8118C22.6886 18.2106 23.2459 18.8254 23.3764 19.419C23.5415 20.1699 23.8523 20.4899 24.4472 21.3376C25.0421 22.1853 27.288 22.3341 26.8269 22.2745C26.3659 22.215 26.0535 22.3787 25.2653 22.3787C24.477 22.3787 23.8375 21.9622 23.2426 21.2483C22.6477 20.5345 22.3501 20.1329 21.8147 19.7611C21.3722 19.4536 21.0548 19.3147 20.8293 19.171L20.8311 19.1476C20.8532 18.8505 20.6686 18.6556 20.6337 18.4017C20.588 18.0688 20.5137 17.7175 20.2619 17.4759C20.1062 17.3266 19.9316 17.1896 19.8184 17.0025L19.7676 16.8749L19.7587 16.8127C19.7845 16.4867 19.7948 16.1594 19.7117 15.841C19.8401 15.5348 20.1334 15.4543 20.5264 15.5917C21.333 15.8739 21.205 15.1654 21.5322 15.0315C21.8594 14.8977 22.261 14.7489 23.0344 14.9868C23.8077 15.2249 24.1647 15.671 24.7002 15.909C25.2355 16.147 26.3956 16.6377 26.9013 16.5039C27.4069 16.37 27.8829 16.0428 28.329 15.9388C27.2135 16.9353 26.5146 17.203 26.0237 17.2178C25.533 17.2326 24.5663 16.8758 24.1795 16.6675C23.7928 16.4593 23.2128 16.5634 22.5438 16.7649L22.5415 16.7655C22.9761 16.6682 23.4227 16.6535 23.7982 16.8192C28.2211 18.7659 27.1516 15.3696 30.3792 16.0313C27.4799 14.4664 27.5237 18.0268 23.8507 14.8865C23.1282 14.2687 21.763 14.4655 21.0855 14.6147C21.4477 14.0129 22.2306 12.9122 23.1629 12.8103C27.9666 12.2849 25.3423 9.87844 28.4684 8.83769C25.175 8.93212 26.9933 11.9934 22.2422 11.1103C22.0477 11.0742 21.8468 11.0827 21.646 11.1227C21.578 11.1356 21.4941 11.1377 21.6176 11.1543C21.785 11.1774 22.2227 11.24 22.6112 11.3152C23.1038 11.4106 23.6281 11.5694 24.2159 11.4264C24.8039 11.2835 25.4235 11.1881 25.7731 10.8068C26.1226 10.4254 25.9795 10.2446 26.7899 9.59924C26.5357 9.83762 26.2338 10.5208 25.916 11.1246C25.5983 11.7283 25.1375 11.8713 24.5973 12.1573C24.0571 12.4433 23.215 12.3162 22.6589 12.4274C22.1028 12.5386 21.7374 13.0947 21.2449 13.5714C20.9638 13.8434 20.75 13.9265 20.6182 13.9479L20.6159 13.945L20.3786 13.8432L20.1647 13.7206L20.0237 13.5797L19.9952 13.3518L20.0235 13.2104L20.1181 13.0527L20.1876 12.8443V12.6021L20.1207 12.3354L20.0185 12.0954L19.9677 12.0345L19.8511 11.8947L19.7362 11.7797L19.6793 11.7227L19.4325 11.6169H19.3179L19.3117 11.5548L19.3497 11.3648L19.3824 11.1351L19.3829 10.9285L19.3465 10.7827L19.2124 10.5817L19.007 10.2391L18.8032 10.1984L18.6005 10.2795L18.5566 10.4111L18.5567 10.5186L18.5882 10.8378L18.5589 11.0442L18.4744 11.1851L18.3996 11.241L18.1105 11.0699L18.0404 10.4227C18.0404 10.4227 18.2198 9.62713 18.6565 9.29166C19.0932 8.95631 20.3333 8.70679 20.9027 8.16084C21.1206 7.95187 21.3466 7.6811 21.5411 7.41304C22.1392 6.58892 21.9718 6.37762 22.0519 5.4644C22.0805 5.13801 22.1602 4.82391 22.3376 4.59668C22.2144 5.39378 22.3986 6.1032 22.4625 6.88965C22.5133 7.51469 22.2384 8.04037 22.2008 8.10892C23.303 6.40469 21.485 5.51414 23.2167 3.56316C20.4118 5.29164 23.5171 7.03365 18.961 8.64449C18.3192 8.87129 17.8744 9.59239 17.5966 10.2263L17.3745 10.1375L17.0448 10.1044L16.9617 10.0941ZM19.1937 17.7708L19.2786 17.8557L19.1998 17.9345L19.1716 17.7929L19.1937 17.7708Z" fill="#141414"/>
</svg>
