<svg width="24" height="24" viewBox="0 0 24 24" fill="none" xmlns="http://www.w3.org/2000/svg">
<rect width="24" height="24" rx="8" fill="#F5F7F7"/>
<circle cx="12" cy="12" r="12" fill="#F5F7F7"/>
<path d="M14.5024 7.39551H9.49609V16.3921H14.5024V7.39551Z" fill="#FF5F00"/>
<path d="M9.81428 11.8944C9.81268 10.1384 10.6183 8.47925 11.999 7.39527C9.51509 5.44251 5.91835 5.8737 3.96558 8.35845C2.01282 10.8424 2.44401 14.4391 4.92877 16.3919C7.00313 18.0223 9.92388 18.0223 11.999 16.3919C10.6191 15.3079 9.81348 13.6496 9.81428 11.8944Z" fill="#EB001B"/>
<path d="M21.2555 11.8943C21.2555 15.0542 18.6939 17.615 15.534 17.615C14.2516 17.615 13.006 17.1838 11.998 16.3918C14.482 14.439 14.9132 10.8431 12.9612 8.35833C12.6796 7.99994 12.3564 7.67675 11.998 7.39515C14.482 5.44238 18.0787 5.87278 20.0315 8.35673C20.8243 9.36472 21.2547 10.6103 21.2547 11.8927L21.2555 11.8943Z" fill="#F79E1B"/>
</svg>
