<svg width="14" height="14" viewBox="0 0 14 14" fill="none" xmlns="http://www.w3.org/2000/svg">
<circle cx="7" cy="7" r="3" fill="#001E34"/>
<path d="M0.2 7C0.089543 7 -0.000298315 7.08958 0.00285661 7.2C0.0404171 8.51449 0.447624 9.79334 1.17971 10.889C1.94888 12.0401 3.04213 12.9373 4.32122 13.4672C5.6003 13.997 7.00776 14.1356 8.36563 13.8655C9.7235 13.5954 10.9708 12.9287 11.9497 11.9497C12.9287 10.9708 13.5954 9.7235 13.8655 8.36563C14.1356 7.00777 13.997 5.6003 13.4672 4.32122C12.9373 3.04213 12.0401 1.94888 10.889 1.17971C9.79334 0.447624 8.51449 0.0404174 7.2 0.00285664C7.08958 -0.000298299 7 0.089543 7 0.2V0.85C7 0.960457 7.08958 1.04965 7.19998 1.05336C8.30675 1.09057 9.38267 1.43605 10.3056 2.05276C11.2841 2.70655 12.0467 3.63581 12.4971 4.72303C12.9474 5.81025 13.0653 7.0066 12.8357 8.16079C12.6061 9.31497 12.0394 10.3752 11.2073 11.2073C10.3752 12.0394 9.31497 12.6061 8.16079 12.8357C7.0066 13.0653 5.81025 12.9474 4.72303 12.4971C3.63581 12.0467 2.70655 11.2841 2.05276 10.3056C1.43605 9.38267 1.09057 8.30675 1.05336 7.19998C1.04965 7.08958 0.960457 7 0.85 7H0.2Z" fill="#64A3A0"/>
</svg>
