<svg width="16" height="16" viewBox="0 0 16 16" fill="none" xmlns="http://www.w3.org/2000/svg">
<path fill-rule="evenodd" clip-rule="evenodd" d="M4.07744 7.36748C4.23367 7.21225 4.486 7.21252 4.6419 7.36808L6.92199 9.64314L11.3581 5.24256C11.5141 5.08778 11.7658 5.08788 11.9218 5.24279L12.0553 5.37548C12.2128 5.53198 12.2127 5.7868 12.0551 5.94318L7.20439 10.756C7.04818 10.911 6.79611 10.9107 6.64026 10.7554L3.94357 8.06706C3.78659 7.91057 3.7868 7.65626 3.94404 7.50003L4.07744 7.36748Z" fill="#64A3A0"/>
<path d="M15 8C15 11.866 11.866 15 8 15C4.13401 15 1 11.866 1 8C1 4.13401 4.13401 1 8 1C11.866 1 15 4.13401 15 8ZM2.05 8C2.05 11.2861 4.71391 13.95 8 13.95C11.2861 13.95 13.95 11.2861 13.95 8C13.95 4.71391 11.2861 2.05 8 2.05C4.71391 2.05 2.05 4.71391 2.05 8Z" fill="#64A3A0"/>
</svg>
