<svg width="16" height="16" viewBox="0 0 16 16" fill="none" xmlns="http://www.w3.org/2000/svg">
<path d="M13.1926 12.6692C5.87652 13.8534 2.47556 6.70718 3.32859 2.76009C3.37525 2.5442 3.57229 2.3999 3.79317 2.3999H6.1756C6.39892 2.3999 6.59516 2.54799 6.65642 2.76275L7.17474 4.5798C7.27424 4.92861 7.17705 5.30395 6.92078 5.56064L6.19099 6.29161C6.17313 6.3095 6.16794 6.33646 6.17788 6.3597L6.23156 6.48514C6.93031 8.1182 8.32721 9.34984 10.0349 9.83855C10.0596 9.84562 10.0861 9.83589 10.1003 9.8145L10.4545 9.28242C10.6956 8.92005 11.1435 8.75533 11.562 8.8751L13.2375 9.35457C13.4521 9.41596 13.6 9.61211 13.6 9.83527V12.1856C13.6 12.4239 13.4278 12.6311 13.1926 12.6692Z" stroke="currentColor" stroke-width="1.2" fill="none"/>
</svg>
