<svg width="7" height="11" viewBox="0 0 7 11" fill="none" xmlns="http://www.w3.org/2000/svg">
<path fill-rule="evenodd" clip-rule="evenodd" d="M1.73864 2.83331C1.85864 2.11331 2.52739 1.6678 3.32492 1.70578C3.70666 1.72396 4.04264 1.85902 4.27347 2.07472C4.4903 2.27733 4.66664 2.59817 4.66664 3.11297C4.66664 3.70355 4.46505 3.94721 4.25647 4.08626C3.98826 4.26507 3.5587 4.36297 2.99997 4.36297C2.53974 4.36297 2.16664 4.73607 2.16664 5.1963V6.02964C2.16664 6.48987 2.53974 6.86297 2.99997 6.86297C3.46021 6.86297 3.83331 6.48988 3.83331 6.02964V5.9687C4.29615 5.89623 4.76742 5.74872 5.18097 5.47301C5.90989 4.98707 6.33331 4.18906 6.33331 3.11297C6.33331 2.16944 5.98881 1.39653 5.41138 0.856956C4.84794 0.330463 4.1162 0.0749045 3.40419 0.0409994C2.01422 -0.0251892 0.391312 0.77931 0.0946454 2.55931C0.0189833 3.01328 0.0947042 3.40414 0.779642 3.5183C1.4101 3.62339 1.66297 3.28728 1.73864 2.83331ZM3.06622 10.0993C3.64397 10.0993 4.11234 9.63097 4.11234 9.05322C4.11234 8.47546 3.64397 8.0071 3.06622 8.0071C2.48846 8.0071 2.0201 8.47546 2.0201 9.05322C2.0201 9.63097 2.48846 10.0993 3.06622 10.0993Z" fill="currentColor"/>
</svg>
