<svg width="24" height="24" viewBox="0 0 24 24" fill="none" xmlns="http://www.w3.org/2000/svg">
<path fill-rule="evenodd" clip-rule="evenodd" d="M12 4C7.58172 4 4 7.58172 4 12C4 16.4183 7.58172 20 12 20C16.4183 20 20 16.4183 20 12C20 7.58172 16.4183 4 12 4ZM2 12C2 6.47715 6.47715 2 12 2C17.5228 2 22 6.47715 22 12C22 17.5228 17.5228 22 12 22C6.47715 22 2 17.5228 2 12ZM10.4865 9.39997C10.6305 8.53597 11.433 8.00136 12.39 8.04694C12.8481 8.06875 13.2513 8.23083 13.5283 8.48966C13.7885 8.7328 14.0001 9.1178 14.0001 9.73557C14.0001 10.4443 13.7582 10.7367 13.5079 10.9035C13.186 11.1181 12.6705 11.2356 12.0001 11.2356C11.4478 11.2356 11.0001 11.6833 11.0001 12.2356V13.2356C11.0001 13.7878 11.4478 14.2356 12.0001 14.2356C12.5524 14.2356 13.0001 13.7879 13.0001 13.2356V13.1624C13.5555 13.0755 14.121 12.8985 14.6173 12.5676C15.492 11.9845 16.0001 11.0269 16.0001 9.73557C16.0001 8.60333 15.5867 7.67584 14.8937 7.02835C14.2176 6.39655 13.3395 6.08989 12.4851 6.0492C10.8172 5.96977 8.86967 6.93517 8.51367 9.07117C8.42288 9.61594 8.51374 10.085 9.33567 10.222C10.0922 10.3481 10.3957 9.94474 10.4865 9.39997ZM12.0796 18.1192C12.7729 18.1192 13.3349 17.5572 13.3349 16.8639C13.3349 16.1706 12.7729 15.6085 12.0796 15.6085C11.3863 15.6085 10.8242 16.1706 10.8242 16.8639C10.8242 17.5572 11.3863 18.1192 12.0796 18.1192Z" fill="#B3C2CD"/>
</svg>
