<svg width="24" height="24" viewBox="0 0 24 24" fill="none" xmlns="http://www.w3.org/2000/svg">
<circle cx="12" cy="12" r="10" fill="#FFDD00"/>
<path fill-rule="evenodd" clip-rule="evenodd" d="M10.4865 9.39997C10.6305 8.53597 11.433 8.00136 12.39 8.04694C12.8481 8.06875 13.2513 8.23083 13.5283 8.48966C13.7885 8.7328 14.0001 9.1178 14.0001 9.73557C14.0001 10.4443 13.7582 10.7367 13.5079 10.9035C13.186 11.1181 12.6705 11.2356 12.0001 11.2356C11.4478 11.2356 11.0001 11.6833 11.0001 12.2356V13.2356C11.0001 13.7878 11.4478 14.2356 12.0001 14.2356C12.5524 14.2356 13.0001 13.7879 13.0001 13.2356V13.1624C13.5555 13.0755 14.121 12.8985 14.6173 12.5676C15.492 11.9845 16.0001 11.0269 16.0001 9.73557C16.0001 8.60333 15.5867 7.67584 14.8937 7.02835C14.2176 6.39656 13.3395 6.08989 12.4851 6.0492C10.8172 5.96977 8.86967 6.93517 8.51367 9.07117C8.42288 9.61594 8.51374 10.085 9.33567 10.222C10.0922 10.3481 10.3957 9.94474 10.4865 9.39997ZM12.0796 18.1192C12.7729 18.1192 13.3349 17.5572 13.3349 16.8639C13.3349 16.1706 12.7729 15.6085 12.0796 15.6085C11.3863 15.6085 10.8242 16.1706 10.8242 16.8639C10.8242 17.5572 11.3863 18.1192 12.0796 18.1192Z" fill="#4A5F6D"/>
</svg>
