<svg width="26" height="26" viewBox="0 0 26 26" fill="none" xmlns="http://www.w3.org/2000/svg">
<path fill-rule="evenodd" clip-rule="evenodd" d="M6.33333 9C7.80609 9 9 7.80609 9 6.33333C9 4.86057 7.80609 3.66667 6.33333 3.66667C4.86057 3.66667 3.66667 4.86057 3.66667 6.33333C3.66667 7.80609 4.86057 9 6.33333 9ZM6.33333 11.6667C9.27885 11.6667 11.6667 9.27885 11.6667 6.33333C11.6667 3.38781 9.27885 1 6.33333 1C3.38781 1 1 3.38781 1 6.33333C1 9.27885 3.38781 11.6667 6.33333 11.6667ZM19.6667 22.3333C21.1394 22.3333 22.3333 21.1394 22.3333 19.6667C22.3333 18.1939 21.1394 17 19.6667 17C18.1939 17 17 18.1939 17 19.6667C17 21.1394 18.1939 22.3333 19.6667 22.3333ZM19.6667 25C22.6122 25 25 22.6122 25 19.6667C25 16.7211 22.6122 14.3333 19.6667 14.3333C16.7211 14.3333 14.3333 16.7211 14.3333 19.6667C14.3333 22.6122 16.7211 25 19.6667 25ZM23.8553 3.63987C24.2719 3.22331 24.2719 2.54793 23.8553 2.13137L23.4782 1.75425C23.0616 1.33769 22.3863 1.33769 21.9697 1.75425L2.14487 21.5791C1.72831 21.9956 1.72831 22.671 2.14487 23.0876L2.522 23.4647C2.93855 23.8813 3.61393 23.8813 4.03049 23.4647L23.8553 3.63987Z" fill="colorCurrent"/>
</svg>
