<svg width="17" height="17" viewBox="0 0 17 17" fill="none" xmlns="http://www.w3.org/2000/svg">
<path fill-rule="evenodd" clip-rule="evenodd" d="M12.3327 7.33335C12.3327 10.0948 10.0941 12.3334 7.33268 12.3334C4.57126 12.3334 2.33268 10.0948 2.33268 7.33335C2.33268 4.57193 4.57126 2.33335 7.33268 2.33335C10.0941 2.33335 12.3327 4.57193 12.3327 7.33335ZM11.4207 12.5999C10.2918 13.4775 8.87327 14 7.33268 14C3.65078 14 0.666016 11.0153 0.666016 7.33335C0.666016 3.65146 3.65078 0.666687 7.33268 0.666687C11.0146 0.666687 13.9993 3.65146 13.9993 7.33335C13.9993 8.87395 13.4768 10.2925 12.5992 11.4214L16.6173 15.4394C16.8776 15.6998 16.8776 16.1219 16.6173 16.3822L16.3816 16.6179C16.1212 16.8783 15.6991 16.8783 15.4388 16.6179L11.4207 12.5999Z" fill="currentColor"/>
</svg>
