<svg width="240" height="48" viewBox="0 0 240 48" fill="none" xmlns="http://www.w3.org/2000/svg">
<path d="M22.9519 7.57971C23.3634 6.61633 24.6367 6.61633 25.0482 7.57971L29.4444 17.8713L40.1055 19.0455C41.1083 19.156 41.5061 20.499 40.7474 21.2126L32.8092 28.6778L35.0362 39.6347C35.2486 40.6794 34.2139 41.5039 33.346 40.9815L24 35.3565L14.6541 40.9815C13.7862 41.5039 12.7515 40.6794 12.9638 39.6347L15.1909 28.6778L7.2527 21.2126C6.49396 20.499 6.89174 19.156 7.89453 19.0455L18.5557 17.8713L22.9519 7.57971Z" fill="#E8DFCC"/>
<path d="M70.9519 7.57971C71.3634 6.61633 72.6367 6.61633 73.0482 7.57971L77.4444 17.8713L88.1055 19.0455C89.1083 19.156 89.5061 20.499 88.7474 21.2126L80.8092 28.6778L83.0362 39.6347C83.2486 40.6794 82.2139 41.5039 81.346 40.9815L72 35.3565L62.6541 40.9815C61.7862 41.5039 60.7515 40.6794 60.9638 39.6347L63.1909 28.6778L55.2527 21.2126C54.494 20.499 54.8917 19.156 55.8945 19.0455L66.5557 17.8713L70.9519 7.57971Z" fill="#E8DFCC"/>
<path d="M118.952 7.57971C119.363 6.61633 120.637 6.61633 121.048 7.57971L125.444 17.8713L136.106 19.0455C137.108 19.156 137.506 20.499 136.747 21.2126L128.809 28.6778L131.036 39.6347C131.249 40.6794 130.214 41.5039 129.346 40.9815L120 35.3565L110.654 40.9815C109.786 41.5039 108.752 40.6794 108.964 39.6347L111.191 28.6778L103.253 21.2126C102.494 20.499 102.892 19.156 103.895 19.0455L114.556 17.8713L118.952 7.57971Z" fill="#E8DFCC"/>
<path d="M166.952 7.57971C167.363 6.61633 168.637 6.61633 169.048 7.57971L173.444 17.8713L184.106 19.0455C185.108 19.156 185.506 20.499 184.747 21.2126L176.809 28.6778L179.036 39.6347C179.249 40.6794 178.214 41.5039 177.346 40.9815L168 35.3565L158.654 40.9815C157.786 41.5039 156.752 40.6794 156.964 39.6347L159.191 28.6778L151.253 21.2126C150.494 20.499 150.892 19.156 151.895 19.0455L162.556 17.8713L166.952 7.57971Z" fill="#E8DFCC"/>
<path d="M214.952 7.57971C215.363 6.61633 216.637 6.61633 217.048 7.57971L221.444 17.8713L232.106 19.0455C233.108 19.156 233.506 20.499 232.747 21.2126L224.809 28.6778L227.036 39.6347C227.249 40.6794 226.214 41.5039 225.346 40.9815L216 35.3565L206.654 40.9815C205.786 41.5039 204.752 40.6794 204.964 39.6347L207.191 28.6778L199.253 21.2126C198.494 20.499 198.892 19.156 199.895 19.0455L210.556 17.8713L214.952 7.57971Z" fill="#E8E0CC"/>
</svg>
