<svg width="16" height="16" viewBox="0 0 16 16" fill="none" xmlns="http://www.w3.org/2000/svg">
<rect width="16" height="16" rx="8" />
<path fill-rule="evenodd" clip-rule="evenodd" d="M8.00008 9.99984C9.10465 9.99984 10.0001 9.10441 10.0001 7.99984C10.0001 6.89527 9.10465 5.99984 8.00008 5.99984C6.89551 5.99984 6.00008 6.89527 6.00008 7.99984C6.00008 9.10441 6.89551 9.99984 8.00008 9.99984ZM8.00008 11.3332C9.84103 11.3332 11.3334 9.84079 11.3334 7.99984C11.3334 6.15889 9.84103 4.6665 8.00008 4.6665C6.15913 4.6665 4.66675 6.15889 4.66675 7.99984C4.66675 9.84079 6.15913 11.3332 8.00008 11.3332Z" fill="currentColor"/>
<path fill-rule="evenodd" clip-rule="evenodd" d="M7.99992 1.3335C8.36811 1.3335 8.66659 1.63197 8.66659 2.00016V2.66683C8.66659 3.03502 8.36811 3.3335 7.99992 3.3335C7.63173 3.3335 7.33325 3.03502 7.33325 2.66683V2.00016C7.33325 1.63197 7.63173 1.3335 7.99992 1.3335Z" fill="currentColor"/>
<path fill-rule="evenodd" clip-rule="evenodd" d="M7.99992 12.6665C8.36811 12.6665 8.66659 12.965 8.66659 13.3332V13.9998C8.66659 14.368 8.36811 14.6665 7.99992 14.6665C7.63173 14.6665 7.33325 14.368 7.33325 13.9998V13.3332C7.33325 12.965 7.63173 12.6665 7.99992 12.6665Z" fill="currentColor"/>
<path fill-rule="evenodd" clip-rule="evenodd" d="M14.6667 8.00016C14.6667 8.36835 14.3683 8.66683 14.0001 8.66683L13.3334 8.66683C12.9652 8.66683 12.6667 8.36835 12.6667 8.00016C12.6667 7.63197 12.9652 7.3335 13.3334 7.3335L14.0001 7.3335C14.3683 7.3335 14.6667 7.63197 14.6667 8.00016Z" fill="currentColor"/>
<path fill-rule="evenodd" clip-rule="evenodd" d="M3.33325 8.00016C3.33325 8.36835 3.03477 8.66683 2.66659 8.66683L1.99992 8.66683C1.63173 8.66683 1.33325 8.36835 1.33325 8.00016C1.33325 7.63197 1.63173 7.3335 1.99992 7.3335L2.66659 7.3335C3.03478 7.3335 3.33325 7.63197 3.33325 8.00016Z" fill="currentColor"/>
<path fill-rule="evenodd" clip-rule="evenodd" d="M3.28586 3.28592C3.54621 3.02557 3.96832 3.02557 4.22867 3.28592L4.70007 3.75732C4.96042 4.01767 4.96042 4.43978 4.70007 4.70013C4.43972 4.96048 4.01761 4.96048 3.75726 4.70013L3.28586 4.22873C3.02551 3.96838 3.02551 3.54627 3.28586 3.28592Z" fill="currentColor"/>
<path fill-rule="evenodd" clip-rule="evenodd" d="M11.2998 11.2996C11.5601 11.0392 11.9822 11.0392 12.2426 11.2996L12.714 11.771C12.9743 12.0313 12.9743 12.4535 12.714 12.7138C12.4536 12.9742 12.0315 12.9742 11.7712 12.7138L11.2998 12.2424C11.0394 11.9821 11.0394 11.5599 11.2998 11.2996Z" fill="currentColor"/>
<path fill-rule="evenodd" clip-rule="evenodd" d="M12.7141 3.28586C12.9744 3.54621 12.9744 3.96832 12.7141 4.22867L12.2427 4.70007C11.9823 4.96042 11.5602 4.96042 11.2999 4.70007C11.0395 4.43972 11.0395 4.01761 11.2999 3.75726L11.7713 3.28586C12.0316 3.02551 12.4537 3.02551 12.7141 3.28586Z" fill="currentColor"/>
<path fill-rule="evenodd" clip-rule="evenodd" d="M4.70016 11.3C4.96051 11.5604 4.96051 11.9825 4.70016 12.2428L4.22876 12.7142C3.96841 12.9746 3.5463 12.9746 3.28595 12.7142C3.0256 12.4539 3.0256 12.0318 3.28595 11.7714L3.75736 11.3C4.0177 11.0397 4.43981 11.0397 4.70016 11.3Z" fill="currentColor"/>
</svg>
