<svg width="167" height="32" viewBox="0 0 167 32" fill="none" xmlns="http://www.w3.org/2000/svg">
<path d="M78.1 26.9999H81.4L86 9.8999V26.9999H89.7V4.3999H84.6L80 20.9999L75.4 4.3999H70.2V26.9999H73.4V9.8999L78.1 26.9999ZM105.2 15.7999C105.2 11.7999 103.2 10.2999 99.1 10.2999C96.5 10.2999 94.5 11.0999 93.3 11.7999V14.9999C94.3 14.1999 96.6 13.3999 98.6 13.3999C100.5 13.3999 101.3 14.0999 101.3 15.7999V16.6999H100.7C94.8 16.6999 92.1 18.6999 92.1 21.9999C92.1 25.2999 94.1 27.1999 97.1 27.1999C99.4 27.1999 100.4 26.4999 101.1 25.6999H101.3C101.3 26.0999 101.5 26.6999 101.6 26.9999H105.4C105.3 25.6999 105.2 24.2999 105.2 22.9999V15.7999ZM101.3 23.0999C100.8 23.7999 99.9 24.3999 98.5 24.3999C96.9 24.3999 96.1 23.3999 96.1 21.9999C96.1 20.0999 97.4 19.3999 100.8 19.3999H101.4V23.0999H101.3ZM111.9 10.5999H108.3V31.6999H112.2V25.0999C113.2 26.5999 114.6 27.2999 116.3 27.2999C120.1 27.2999 122.7 24.2999 122.7 18.7999C122.7 13.2999 120.2 10.2999 116.5 10.2999C114.7 10.2999 113.2 11.0999 112.1 12.6999L111.9 10.5999ZM115.2 24.2999C113.2 24.2999 112.1 22.5999 112.1 18.8999C112.1 15.0999 113.2 13.3999 115.4 13.3999C117.5 13.3999 118.6 15.0999 118.6 18.7999C118.6 22.5999 117.5 24.2999 115.2 24.2999ZM134.8 26.9999H139.2L133 18.1999L138.5 10.5999H134.6L129.1 18.1999V10.5999H125.2V26.9999H129.1V18.9999L134.8 26.9999ZM152.2 25.8999V22.6999C151 23.4999 149 24.1999 147.1 24.1999C144.3 24.1999 143.2 22.8999 143 20.0999H152.3V17.9999C152.3 12.2999 149.8 10.1999 145.9 10.1999C141.2 10.1999 138.9 13.7999 138.9 18.7999C138.9 24.4999 141.7 27.2999 146.6 27.2999C149.3 27.2999 151.1 26.6999 152.2 25.8999ZM145.9 13.3999C147.8 13.3999 148.4 14.9999 148.4 16.9999V17.2999H143C143.1 14.6999 144.1 13.3999 145.9 13.3999ZM166.2 13.6999V10.5999H153.2V13.6999H157.8V26.9999H161.7V13.6999H166.2Z" fill="#001E34"/>
<path d="M47.1 31C55.4 31 62.1 24.3 62.1 16C62.1 7.7 55.4 1 47.1 1C38.8 1 32.1 7.7 32.1 16C32 24.3 38.8 31 47.1 31Z" fill="#FFE81D"/>
<path d="M15 31C23.2843 31 30 24.2843 30 16C30 7.71573 23.2843 1 15 1C6.71573 1 0 7.71573 0 16C0 24.2843 6.71573 31 15 31Z" fill="#FC3F1D"/>
<path d="M12.0682 15.6097C12.5839 16.4043 13.3473 17.0481 14.3109 17.708L15.4255 18.5254L11.5268 24.6H9.23856L12.815 19.2789L13.0872 18.874L12.6891 18.592C11.5094 17.7564 10.6439 16.9749 10.0694 16.0902C9.50273 15.2175 9.20005 14.2144 9.20005 12.9C9.20005 11.2697 9.75502 9.94028 10.806 9.0123C11.8641 8.07801 13.4829 7.5 15.7 7.5H19.8V24.5H17.8V9.4V8.9H17.3H17.2H15.7C14.3223 8.9 13.2137 9.24444 12.4438 9.9255C11.6655 10.614 11.3 11.5874 11.3 12.7C11.3 13.8746 11.5422 14.7995 12.0682 15.6097Z" fill="white" stroke="white"/>
<path d="M39.7 9.2001L26.5 26.5001L30 30.5001L39.8 17.5001L38.8 24.6001L44.3 26.5001L51 15.8001C50.7 17.8001 50.2 22.4001 54.6 23.8001C61.5 25.9001 67.5 13.5001 70.3 7.2001L66.3 5.1001C63.2 11.6001 58.4 18.8001 56.5 18.3001C54.6 17.8001 56.3 11.7001 57.4 7.8001V7.7001L51.3 5.6001L44 17.5001L45 11.0001L39.7 9.2001Z" fill="#001E34"/>
</svg>
