<svg width="20" height="20" viewBox="0 0 20 20" fill="none" xmlns="http://www.w3.org/2000/svg">
<path fill-rule="evenodd" clip-rule="evenodd" d="M2 10C2 5.58172 5.58172 2 10 2C14.4183 2 18 5.58172 18 10C18 14.4183 14.4183 18 10 18C5.58172 18 2 14.4183 2 10ZM10 0C4.47715 0 0 4.47715 0 10C0 15.5228 4.47715 20 10 20C15.5228 20 20 15.5228 20 10C20 4.47715 15.5228 0 10 0ZM9.8 12C9.35817 12 9 11.6418 9 11.2V4.8C9 4.35817 9.35817 4 9.8 4H10.2C10.6418 4 11 4.35817 11 4.8V11.2C11 11.6418 10.6418 12 10.2 12H9.8ZM10.0002 16.4367C10.7936 16.4367 11.4368 15.7935 11.4368 15C11.4368 14.2066 10.7936 13.5634 10.0002 13.5634C9.2067 13.5634 8.56348 14.2066 8.56348 15C8.56348 15.7935 9.2067 16.4367 10.0002 16.4367Z" fill="currentColor"/>
</svg>
