<svg width="18" height="14" viewBox="0 0 18 14" fill="none" xmlns="http://www.w3.org/2000/svg">
<path fill-rule="evenodd" clip-rule="evenodd" d="M2.16651 0.333252C1.33808 0.333249 0.666504 1.00482 0.666504 1.83325V12.1665C0.666504 12.995 1.33807 13.6665 2.1665 13.6665L10.8332 13.6666C11.6616 13.6666 12.3332 12.995 12.3332 12.1666V9.83916L14.9172 11.8318C15.9034 12.5923 17.3332 11.8893 17.3332 10.644V3.37192C17.3332 2.12013 15.8903 1.41905 14.9062 2.19264L12.3332 4.21516V1.8333C12.3332 1.00487 11.6616 0.3333 10.8332 0.333296L2.16651 0.333252ZM12.3332 6.33509V7.7345L15.6665 10.305V3.71492L12.3332 6.33509ZM10.6665 6.25411V1.99996L2.33317 1.99992V11.9999L10.6665 11.9999V7.81645V6.25411Z" fill="currentColor"/>
</svg>
