<svg width="24" height="24" viewBox="0 0 24 24" fill="none" xmlns="http://www.w3.org/2000/svg">
<path fill-rule="evenodd" clip-rule="evenodd" d="M2 5.58C2 5.25968 2.25968 5 2.58 5H8.42C8.74033 5 9 5.25968 9 5.58V6.42C9 6.74032 8.74033 7 8.42 7H2.58C2.25968 7 2 6.74032 2 6.42V5.58ZM2 11.58C2 11.2597 2.25968 11 2.58 11H7.42C7.74033 11 8 11.2597 8 11.58V12.42C8 12.7403 7.74033 13 7.42 13H2.58C2.25968 13 2 12.7403 2 12.42V11.58ZM2.58 17C2.25968 17 2 17.2597 2 17.58V18.42C2 18.7403 2.25968 19 2.58 19H8.42C8.74033 19 9 18.7403 9 18.42V17.58C9 17.2597 8.74033 17 8.42 17H2.58Z" fill="currentColor"/>
<path fill-rule="evenodd" clip-rule="evenodd" d="M16.5 16C18.9853 16 21 13.9853 21 11.5C21 9.01472 18.9853 7 16.5 7C14.0147 7 12 9.01472 12 11.5C12 13.9853 14.0147 16 16.5 16ZM16.5 18C20.0899 18 23 15.0899 23 11.5C23 7.91015 20.0899 5 16.5 5C12.9101 5 10 7.91015 10 11.5C10 15.0899 12.9101 18 16.5 18Z" fill="currentColor"/>
<path fill-rule="evenodd" clip-rule="evenodd" d="M21.8305 20.6062C21.4558 20.8404 20.9623 20.7265 20.7281 20.3518L18.6521 17.0302L20.3481 15.9702L22.4241 19.2918C22.6583 19.6665 22.5444 20.16 22.1697 20.3942L21.8305 20.6062Z" fill="currentColor"/>
</svg>
