<svg width="16" height="16" viewBox="0 0 16 16" fill="none" xmlns="http://www.w3.org/2000/svg">
<path d="M9.8001 7.20005C9.8001 8.19416 8.99421 9.00005 8.0001 9.00005C7.00599 9.00005 6.2001 8.19416 6.2001 7.20005C6.2001 6.20594 7.00599 5.40005 8.0001 5.40005C8.99421 5.40005 9.8001 6.20594 9.8001 7.20005Z" stroke="currentColor" stroke-width="1.2"/>
<path d="M12.9999 7.19998C12.9999 8.96516 11.9313 10.6201 10.6756 11.8757C10.0565 12.4949 9.41488 12.9932 8.88738 13.3331C8.62319 13.5034 8.39547 13.6288 8.22008 13.7093C8.09673 13.7659 8.02673 13.7872 7.9999 13.7952C7.97307 13.7872 7.90307 13.7659 7.77972 13.7093C7.60433 13.6288 7.37661 13.5034 7.11242 13.3331C6.58492 12.9932 5.94333 12.4949 5.32417 11.8757C4.06855 10.6201 2.9999 8.96516 2.9999 7.19998C2.9999 4.43855 5.23848 2.19998 7.9999 2.19998C10.7613 2.19998 12.9999 4.43855 12.9999 7.19998Z" stroke="currentColor" stroke-width="1.2"/>
</svg>
