<svg width="16" height="16" viewBox="0 0 16 16" fill="none" xmlns="http://www.w3.org/2000/svg">
<path fill-rule="evenodd" clip-rule="evenodd" d="M12.165 4.54205C12.2692 4.43791 12.2692 4.26906 12.165 4.16492L11.8351 3.83494C11.7309 3.7308 11.5621 3.7308 11.4579 3.83494L8.00002 7.29286L4.54217 3.83502C4.43803 3.73088 4.26919 3.73088 4.16505 3.83502L3.83507 4.16501C3.73093 4.26914 3.73093 4.43799 3.83507 4.54213L7.29291 7.99997L3.83506 11.4578C3.73092 11.562 3.73092 11.7308 3.83506 11.8349L4.16505 12.1649C4.26919 12.2691 4.43803 12.2691 4.54217 12.1649L8.00002 8.70708L11.4579 12.165C11.5621 12.2691 11.7309 12.2691 11.8351 12.165L12.1651 11.835C12.2692 11.7309 12.2692 11.562 12.1651 11.4579L8.70712 7.99997L12.165 4.54205Z" fill="#67859B"/>
</svg>
