<svg width="20" height="20" viewBox="0 0 20 20" fill="none" xmlns="http://www.w3.org/2000/svg">
<path fill-rule="evenodd" clip-rule="evenodd" d="M15.2062 5.67756C15.3363 5.54738 15.3363 5.33633 15.2062 5.20615L14.7937 4.79368C14.6635 4.6635 14.4524 4.6635 14.3223 4.79368L9.99987 9.11608L5.67756 4.79378C5.54739 4.6636 5.33633 4.6636 5.20616 4.79378L4.79368 5.20626C4.66351 5.33643 4.66351 5.54749 4.79368 5.67766L9.11598 9.99996L4.79368 14.3223C4.6635 14.4524 4.6635 14.6635 4.79368 14.7937L5.20616 15.2062C5.33633 15.3363 5.54738 15.3363 5.67756 15.2062L9.99987 10.8838L14.3223 15.2063C14.4525 15.3364 14.6635 15.3364 14.7937 15.2063L15.2062 14.7938C15.3363 14.6636 15.3363 14.4525 15.2062 14.3224L10.8838 9.99996L15.2062 5.67756Z" fill="#4A5F6D"/>
</svg>
