<svg width="10" height="10" viewBox="0 0 10 10" fill="none" xmlns="http://www.w3.org/2000/svg">
<path fill-rule="evenodd" clip-rule="evenodd" d="M9.16492 1.54205C9.26906 1.43791 9.26906 1.26906 9.16492 1.16492L8.83494 0.834941C8.7308 0.730801 8.56196 0.730801 8.45782 0.834941L4.99989 4.29286L1.54205 0.835021C1.43791 0.730882 1.26907 0.730882 1.16493 0.835022L0.834944 1.16501C0.730804 1.26914 0.730804 1.43799 0.834944 1.54213L4.29279 4.99997L0.834941 8.45782C0.730801 8.56196 0.730801 8.7308 0.834941 8.83494L1.16492 9.16492C1.26906 9.26906 1.43791 9.26906 1.54205 9.16492L4.99989 5.70708L8.45782 9.16501C8.56196 9.26915 8.73081 9.26915 8.83495 9.16501L9.16493 8.83502C9.26907 8.73088 9.26907 8.56204 9.16493 8.4579L5.707 4.99997L9.16492 1.54205Z" fill="currentColor"/>
</svg>
