<svg width="12" height="10" viewBox="0 0 12 10" fill="none" xmlns="http://www.w3.org/2000/svg">
<path fill-rule="evenodd" clip-rule="evenodd" d="M3.29623 0.905721C3.08795 0.697442 2.75027 0.697442 2.54199 0.905721L0.158163 3.28955C-0.0501169 3.49783 -0.0501166 3.83551 0.158163 4.04379L2.54199 6.42762C2.75027 6.6359 3.08795 6.6359 3.29623 6.42762L3.4848 6.23905C3.69308 6.03078 3.69308 5.69309 3.4848 5.48481L2.33332 4.33333H8.66656C9.77114 4.33333 10.6666 5.22876 10.6666 6.33333C10.6666 7.4379 9.77113 8.33333 8.66656 8.33333H7.86657C7.57201 8.33333 7.33323 8.57211 7.33323 8.86667V9.13333C7.33323 9.42789 7.57201 9.66667 7.86657 9.66667H8.66656C10.5075 9.66667 11.9999 8.17428 11.9999 6.33333C11.9999 4.49238 10.5075 3 8.66656 3H2.33333L3.4848 1.84853C3.69308 1.64025 3.69308 1.30256 3.4848 1.09428L3.29623 0.905721Z" fill="currentColor"/>
</svg>
