<svg width="24" height="24" viewBox="0 0 24 24" fill="none" xmlns="http://www.w3.org/2000/svg">
<path fill-rule="evenodd" clip-rule="evenodd" d="M3.42867 5.54289C3.42867 5.32198 3.60776 5.14289 3.82867 5.14289L20.1714 5.14288C20.3924 5.14288 20.5714 5.32197 20.5714 5.54289L20.5714 17.3663C20.5714 17.5872 20.3923 17.7663 20.1714 17.7663L14.7393 17.7663L12.2864 20.2784C12.1294 20.4391 11.8709 20.4391 11.714 20.2784L9.26107 17.7663H3.82859C3.60768 17.7663 3.42859 17.5872 3.42859 17.3663L3.42867 5.54289ZM5.14295 6.82601L5.14287 16.0831H9.97739L12.0002 18.094L14.023 16.0831L18.8571 16.0831L18.8572 6.826L5.14295 6.82601Z" fill="currentColor"/>
<path fill-rule="evenodd" clip-rule="evenodd" d="M17.1428 10.2286C17.1428 10.4495 16.9637 10.6286 16.7428 10.6286H7.25712C7.0362 10.6286 6.85712 10.4495 6.85712 10.2286V8.97141C6.85712 8.7505 7.0362 8.57141 7.25712 8.57141H16.7428C16.9637 8.57141 17.1428 8.7505 17.1428 8.97141V10.2286Z" fill="currentColor"/>
<path fill-rule="evenodd" clip-rule="evenodd" d="M12 13.6571C12 13.8781 11.8209 14.0571 11.6 14.0571H7.25712C7.0362 14.0571 6.85712 13.8781 6.85712 13.6571V12.4C6.85712 12.1791 7.0362 12 7.25712 12H11.6C11.8209 12 12 12.1791 12 12.4V13.6571Z" fill="currentColor"/>
</svg>
