<svg width="15" height="16" viewBox="0 0 15 16" fill="none" xmlns="http://www.w3.org/2000/svg">
<path fill-rule="evenodd" clip-rule="evenodd" d="M5.66659 0.5C5.2984 0.5 4.99992 0.798476 4.99992 1.16667V14.8333C4.99992 15.2015 5.2984 15.5 5.66659 15.5H5.99992C6.36811 15.5 6.66659 15.2015 6.66659 14.8333V1.16667C6.66659 0.798477 6.36811 0.5 5.99992 0.5H5.66659ZM1.49992 8C1.13173 8 0.833252 8.29848 0.833252 8.66667V14.8333C0.833252 15.2015 1.13173 15.5 1.49992 15.5H1.83325C2.20144 15.5 2.49992 15.2015 2.49992 14.8333V8.66667C2.49992 8.29848 2.20144 8 1.83325 8H1.49992ZM9.16659 3.66667C9.16659 3.29848 9.46506 3 9.83325 3H10.1666C10.5348 3 10.8333 3.29848 10.8333 3.66667V14.8333C10.8333 15.2015 10.5348 15.5 10.1666 15.5H9.83325C9.46506 15.5 9.16659 15.2015 9.16659 14.8333V3.66667ZM13.9999 5.5C13.6317 5.5 13.3333 5.79848 13.3333 6.16667V14.8333C13.3333 15.2015 13.6317 15.5 13.9999 15.5H14.3333C14.7014 15.5 14.9999 15.2015 14.9999 14.8333V6.16667C14.9999 5.79848 14.7014 5.5 14.3333 5.5H13.9999Z" fill="currentColor"/>
</svg>
