<svg width="25" height="24" viewBox="0 0 25 24" fill="none" xmlns="http://www.w3.org/2000/svg">
<path fill-rule="evenodd" clip-rule="evenodd" d="M10.3 3C9.85817 3 9.5 3.35817 9.5 3.8V20.2C9.5 20.6418 9.85817 21 10.3 21H10.7C11.1418 21 11.5 20.6418 11.5 20.2V3.8C11.5 3.35817 11.1418 3 10.7 3H10.3ZM5.3 12C4.85817 12 4.5 12.3582 4.5 12.8V20.2C4.5 20.6418 4.85817 21 5.3 21H5.7C6.14183 21 6.5 20.6418 6.5 20.2V12.8C6.5 12.3582 6.14183 12 5.7 12H5.3ZM14.5 6.8C14.5 6.35817 14.8582 6 15.3 6H15.7C16.1418 6 16.5 6.35817 16.5 6.8V20.2C16.5 20.6418 16.1418 21 15.7 21H15.3C14.8582 21 14.5 20.6418 14.5 20.2V6.8ZM20.3 9C19.8582 9 19.5 9.35817 19.5 9.8V20.2C19.5 20.6418 19.8582 21 20.3 21H20.7C21.1418 21 21.5 20.6418 21.5 20.2V9.8C21.5 9.35817 21.1418 9 20.7 9H20.3Z" fill="currentColor"/>
</svg>
