<svg width="10" height="10" viewBox="0 0 10 10" fill="none" xmlns="http://www.w3.org/2000/svg">
<g opacity="0.8">
<path fill-rule="evenodd" clip-rule="evenodd" d="M3.75016 2.08333C3.28993 2.08333 2.91683 2.45643 2.91683 2.91667C2.91683 3.3769 3.28993 3.75 3.75016 3.75H4.5835V2.91667C4.5835 2.45643 4.2104 2.08333 3.75016 2.08333ZM2.0835 2.91667C2.0835 3.22024 2.16466 3.50486 2.30647 3.75H1.16683C0.982734 3.75 0.833496 3.89924 0.833496 4.08333V4.25C0.833496 4.43409 0.982735 4.58333 1.16683 4.58333H1.67057C1.66809 4.61078 1.66683 4.63858 1.66683 4.66667V7.83333C1.66683 8.33959 2.07724 8.75 2.5835 8.75H7.41683C7.92309 8.75 8.3335 8.33959 8.3335 7.83333V4.66667C8.3335 4.63858 8.33223 4.61078 8.32976 4.58333H8.8335C9.01759 4.58333 9.16683 4.43409 9.16683 4.25V4.08333C9.16683 3.89924 9.01759 3.75 8.8335 3.75H7.69386C7.83567 3.50486 7.91683 3.22024 7.91683 2.91667C7.91683 1.99619 7.17064 1.25 6.25016 1.25C5.75237 1.25 5.30556 1.46823 5.00016 1.81424C4.69477 1.46823 4.24795 1.25 3.75016 1.25C2.82969 1.25 2.0835 1.99619 2.0835 2.91667ZM2.50016 4.66667C2.50016 4.62064 2.53747 4.58333 2.5835 4.58333H3.75016H4.5835V7.91667H2.5835C2.53747 7.91667 2.50016 7.87936 2.50016 7.83333V4.66667ZM5.41683 7.91667H7.41683C7.46285 7.91667 7.50016 7.87936 7.50016 7.83333V4.66667C7.50016 4.62064 7.46285 4.58333 7.41683 4.58333H6.25016H5.41683V7.91667ZM7.0835 2.91667C7.0835 3.3769 6.7104 3.75 6.25016 3.75H5.41683V2.91667C5.41683 2.45643 5.78993 2.08333 6.25016 2.08333C6.7104 2.08333 7.0835 2.45643 7.0835 2.91667Z" fill="currentColor"/>
</g>
</svg>
