<svg width="24" height="24" viewBox="0 0 24 24" fill="none" xmlns="http://www.w3.org/2000/svg">
<path fill-rule="evenodd" clip-rule="evenodd" d="M15.5215 15.1061L15.542 15.1011L15.5429 15.1009L15.5614 15.0952L15.5778 15.0891L15.5799 15.0882L15.5933 15.0823L15.5976 15.0803L15.6115 15.073L15.6129 15.0723L15.6252 15.0646L15.6292 15.0622L15.6374 15.0564L15.6449 15.0507L15.6519 15.045L15.6564 15.041L15.6643 15.0336L15.6685 15.0294L15.6761 15.0213L15.6798 15.0171L15.6862 15.0093L15.6873 15.008L15.695 14.9976L15.6966 14.9953L15.7042 14.9834L15.705 14.9821L15.7126 14.9687L15.7197 14.9543L15.7201 14.9535L15.726 14.9398L15.7293 14.9316L15.7329 14.9219L15.7368 14.91L15.7382 14.9056L15.7412 14.8947L15.7427 14.889L15.7429 14.8882L15.7463 14.8744L15.7468 14.8722L15.7485 14.8637L15.7501 14.8553C15.7554 14.827 15.7583 14.7978 15.7602 14.7695L15.7603 14.7683L15.7617 14.7369V14.7357L15.7622 14.7215V14.7191L15.7626 14.7063V14.7027L15.7627 14.6913V14.6866C15.7637 14.5951 15.7611 14.5213 15.7946 14.5067L15.7953 14.5065L15.8004 14.5048C15.8085 14.5031 15.8187 14.5044 15.8307 14.5087L15.8398 14.5126L15.8408 14.513L15.8501 14.5177L15.852 14.5187L15.8611 14.5241L15.8642 14.526L15.8732 14.5319L15.8775 14.5349L15.8862 14.5412L15.892 14.5454L15.9001 14.5517L15.9005 14.552L15.9136 14.5624L15.9151 14.5637L15.9243 14.5712L15.9312 14.5771C15.9468 14.5905 15.9638 14.6059 15.9824 14.6235L15.983 14.6149L15.9824 14.5694L15.9287 14.4619L15.8213 14.247L15.7676 13.9784L15.7139 13.7367L15.6601 13.6024L15.4184 13.3606L15.311 13.2262L15.2303 13.1726L15.2035 13.2532H15.1498L15.0692 13.2262L14.9886 13.1726L14.8812 13.1188L14.5589 13.0115L14.4515 12.9846L14.344 12.9308H14.0217L13.9947 12.8771L13.941 12.7428L13.8335 12.6085L13.6994 12.5547L13.3501 12.5278L13.0546 12.501H12.9472L12.8397 12.5547L12.7054 12.6085L12.5442 12.6622L12.3831 12.716L12.3563 12.7696L12.3025 12.8233H12.2488L12.2219 12.7696V12.716L12.3025 12.6353L12.3563 12.5278V12.4204L12.3294 12.313L12.3025 12.2862L12.2756 12.3398L12.2219 12.4473L12.0339 12.716L11.9264 12.8502V12.9846L12.007 13.1457L12.1413 13.2532L11.9801 13.1994L11.8727 13.0919L11.8458 12.9577L11.819 12.7965L11.8458 12.6353V12.4473L11.819 12.4204L11.7115 12.5278L11.6578 12.6891L11.6042 12.8771L11.631 13.0115L11.6578 13.0919L11.631 13.1994L11.5772 13.28L11.5504 13.4412L11.4967 13.5487L11.4161 13.6024H11.3624V13.656L11.3892 13.7903L11.3624 13.9784V14.1396L11.4161 14.1933L11.4699 14.2201L11.4429 13.9516L11.4967 13.8172L11.5772 13.6829L11.7384 13.4949L11.819 13.4143L11.9264 13.3069L11.9533 13.3337L11.9801 13.3874L12.0608 13.4412H12.1413L12.1683 13.4681L12.0608 13.6292L12.0339 13.7903L12.0876 13.9247L12.1683 14.0321L12.3831 14.1933L12.4099 14.2201L12.3831 14.247L12.2488 14.1933L12.0339 14.0321L11.9801 13.9784L11.9264 14.059L11.8995 14.1127L11.9264 14.1933H11.7653L11.6847 14.1665L11.631 14.1127V14.059L11.5772 14.1665V14.2739L11.631 14.3813L11.6578 14.4082H11.6042L11.4699 14.3813L11.3355 14.247L11.3087 14.1396L11.3355 14.0053V13.7903L11.2549 13.6829L11.1743 13.656L11.1206 13.6024L11.0669 13.4681H11.2817L11.3355 13.3874L11.3087 13.2532L11.2817 13.0651V12.8771L11.3624 12.716L11.4699 12.5278L11.5504 12.3398L11.6578 12.1787L11.819 12.0981L12.007 12.0176L12.1413 11.9638V11.8027L12.1951 11.6953L12.3294 11.5072L12.4636 11.346L12.4905 11.1848L12.3831 11.2922L12.2756 11.3728H12.2219V11.3191L12.2756 11.1848V10.7013L12.2219 10.6476L12.1683 10.6207V10.4865L11.9533 10.379H11.8995L11.9533 10.4596L11.9801 10.5133L11.9264 10.5402L11.819 10.5671L11.7384 10.5133L11.6847 10.4058L11.631 10.4865V10.5671L11.7384 10.6476L11.8458 10.7013H11.7922L11.631 10.6744L11.5504 10.5939L11.4967 10.5133V10.4865L11.4699 10.5133L11.4429 10.5671L11.3355 10.7282L11.3087 10.8088V10.8626L11.3892 10.9431L11.4699 10.9699H11.2012L11.0937 10.8894L11.04 10.7819V10.5939L11.0669 10.5402L11.04 10.4865L10.9594 10.4596H10.852L10.7714 10.5133L10.6908 10.5939L10.664 10.7282L10.6908 10.8088L10.7446 10.8626L10.8251 10.9163L10.9594 10.9968L11.1475 11.1848L11.2012 11.3191L11.2281 11.4803L11.2817 11.5878L11.4429 11.6683L11.5504 11.6953L11.5772 11.7221L11.5504 11.7757L11.4967 11.8832L11.4699 11.9907L11.4161 12.0444L11.3355 12.0712L11.2281 12.0981L11.0669 12.125L10.9594 12.1519L10.8251 12.2862L10.7983 12.4204L10.7446 12.4742L10.5833 12.5817L10.5565 12.6891V12.7428L10.476 12.6622L10.449 12.5278L10.476 12.4742L10.5565 12.4204L10.664 12.3398L10.6908 12.313V12.1787H10.5296L10.4222 12.2324L10.3417 12.3398L10.2611 12.4742L10.1805 12.6085V13.0383L10.1267 13.2532V13.4143L10.2342 13.5217L10.3953 13.5487L10.4894 13.511L10.3685 13.4143L10.3147 13.2262L10.3685 12.9308L10.3953 12.9577L10.4222 12.9846H10.5028L10.476 13.0115L10.449 13.0919L10.3953 13.2532L10.449 13.3874L10.5833 13.4412L10.7714 13.3606L10.8251 13.28L10.852 13.1726L10.7983 12.9577L10.7446 12.7965L10.7714 12.7428H10.8251L10.9058 12.7965L10.9594 12.8771L10.9863 13.1188L10.9058 13.3606L10.8251 13.4412L10.7177 13.4949L10.5198 13.5197L10.476 13.6292V13.7635L10.664 13.9516L10.5565 13.9784H10.5028L10.3953 13.8709L10.3417 13.7903L10.288 13.7635L10.2342 13.8709V14.059L10.2611 14.247L10.3417 14.3813L10.4222 14.435L10.5296 14.4888L10.5833 14.5157L10.6103 14.5694L10.637 14.623H10.852L10.9058 14.6767L10.9594 14.7574L11.0669 14.8111H11.2012L11.3087 14.7037L11.3892 14.5962H11.4699L11.5235 14.623H11.631L11.7384 14.6499L11.8458 14.7037L11.9264 14.6767L12.007 14.6499L12.0608 14.7037L12.1413 14.8649L12.2219 14.9186L12.2488 14.9454L12.3025 14.8649L12.3294 14.7842V14.7574L12.3563 14.7842L12.4905 14.9186L12.5711 14.9454L12.7054 14.9186L12.786 14.838L12.8935 14.5694L13.001 14.5157H13.0815L13.1083 14.5694L13.1889 14.6499L13.2426 14.6767L13.3769 14.7037H13.5649L13.6187 14.6767V14.5962L13.6994 14.435L13.7798 14.2739L13.753 14.1665L13.7261 14.1127L13.7798 14.0321L13.8605 13.9516L13.9142 13.8709H13.9679L13.9947 14.0053L14.0485 14.1665L14.156 14.2201L14.2096 14.247V14.3276L14.1828 14.4619L14.2635 14.5962L14.344 14.6767H14.4783L14.5319 14.623L14.6126 14.5694L14.7201 14.4619L14.7737 14.435L14.8006 14.4619V14.7037L14.8812 14.7842L14.9617 14.838L15.0424 14.8649L15.0692 14.9454V15.0529L15.096 15.1603L15.1766 15.214L15.311 15.1871L15.4184 15.0797L15.4722 15.026L15.3915 15.0529L15.311 15.026L15.2572 14.9454L15.2303 14.7574L15.2572 14.6767L15.2841 14.8111L15.3378 14.9186L15.4184 14.9454L15.5527 14.9186L15.5796 14.8917V14.9186L15.499 14.9991V15.026L15.4722 15.0797V15.1138C15.4896 15.1121 15.5061 15.1094 15.5215 15.1061ZM15.1922 16.0157L15.165 16.0155L15.0431 15.9542L14.9556 15.8951L14.9268 15.8668L14.8426 15.7825H15.0061L15.1262 15.7349L15.2464 15.6626L15.2837 15.5878L15.2421 15.4835L15.1782 15.4197L15.1179 15.4045L15.0822 15.4579L14.9942 15.5754L14.8868 15.629L14.8231 15.714V15.7969L14.8768 15.9582V16.0583L14.8731 16.0656L14.9026 16.0713C14.9789 16.0859 15.1041 16.0486 15.1922 16.0157ZM13.753 11.8295L13.6187 11.7489L13.6724 11.8563L13.753 11.9907L13.7261 12.1787L13.6994 12.2862H13.7261L13.7798 12.2324L13.8605 12.0712V11.9638L13.753 11.8295ZM12.9204 7.66602L12.8129 7.88084L12.8665 7.9615L12.974 8.0153L13.0815 8.09579L13.1083 8.20326L13.0277 8.39126L13.2695 8.36445L13.3501 8.23007V8.0153L13.3232 7.82717L13.2964 7.77345V7.74664L13.3501 7.77345L13.4306 7.85402L13.5381 7.98831L13.6187 8.20326L13.6455 8.36445L13.6994 8.41812H13.7798L13.8335 8.44493H13.941L14.0485 8.41812L14.2365 8.36445L14.344 8.28379L14.4245 8.14959L14.4515 8.0153V7.71978L14.4783 7.69288L14.5319 7.80035L14.5589 7.98831L14.5051 8.25698L14.3708 8.63302H14.5319L14.6931 8.71369L14.9349 8.90169L15.096 9.19712L15.1229 9.38512V9.54627L15.096 9.68055L15.0424 9.76122L14.9349 9.81493L14.8006 9.89555L14.7469 9.94922L14.7201 10.0835L14.7469 10.379L14.8543 10.6476L15.0692 10.8356L15.2035 10.8894L15.3647 10.9163L15.5258 10.9431L15.6333 10.9699L15.8213 11.1312H15.8749L15.9019 11.0237L15.8749 10.8356L15.7139 10.6744L15.6065 10.6207H15.2841L15.1498 10.5671L15.0424 10.4058L14.9886 10.2447L15.0155 10.1642L15.0424 10.2178L15.096 10.3253L15.2035 10.4596L15.3378 10.5133L15.5258 10.5671L15.687 10.6207L15.8749 10.7551L15.9556 10.8356V10.8088L15.9019 10.5939L15.8482 10.4596L15.687 10.3522L15.4722 10.2985L15.3647 10.2447L15.2303 10.1104L15.1498 9.94922L15.1229 9.81493L15.2035 9.60007L15.311 9.35831L15.3378 9.25083V9.08965L15.2303 8.82103L15.0692 8.63302L14.8812 8.55241L14.6931 8.49874L14.5857 8.47188V8.39126L14.6394 8.23007L14.6931 7.98831V7.80035L14.6663 7.66602L14.5051 7.45121L14.3708 7.37054L14.2902 7.31678L14.3171 7.37054L14.344 7.50488V7.69288L14.2902 7.90783L14.1828 8.06897L14.0753 8.1764L13.9679 8.20326H13.8605L13.753 8.14959L13.6724 8.04212L13.5919 7.88084L13.5381 7.69288L13.4844 7.50488L13.4038 7.3974L13.2158 7.26312H13.001L13.0546 7.28993L13.1889 7.3974L13.2695 7.53169V7.61235L13.2158 7.69288L13.1352 7.77345H13.0815L12.974 7.71978L12.9204 7.61235V7.66602ZM12.3294 7.42421H12.4905L12.6248 7.50488L12.6785 7.55855H12.7054L12.7323 7.53169L12.6785 7.34373H12.7592L12.8397 7.3974L12.8935 7.47802L12.9204 7.53169H12.9472L12.8665 7.37054L12.7592 7.23626L12.6248 7.18254H12.5174L12.3831 7.2094L12.2488 7.26312L12.1683 7.31678L12.1413 7.42421L12.1951 7.45121L12.3294 7.42421ZM11.8458 7.98831L11.8995 8.04212L11.9533 8.1226L12.0876 8.14959H12.1413L12.1683 8.0153L12.1144 7.85402L11.9533 7.61235L11.8458 7.53169L11.7384 7.47802H11.6578L11.6042 7.53169L11.7115 7.69288L11.7384 7.74664L11.7115 7.82717L11.6578 7.85402L11.4967 7.74664L11.3892 7.69288L11.1206 7.55855H10.9594L10.7714 7.58549L10.7446 7.61235L10.7983 7.66602L10.9058 7.71978L11.04 7.80035L11.3087 7.9615L11.3892 8.06897L11.4161 8.1764V8.25698L11.4699 8.28379L11.5772 8.23007L11.7922 7.98831H11.8458ZM12.3025 10.5402V10.4058L12.2756 10.2985L12.1951 10.2178L12.0608 10.1642H11.8727L11.6847 10.191L11.5504 10.2715L11.5235 10.3253H11.6042L11.7653 10.2985H11.9264L12.0608 10.3253L12.2219 10.4327L12.2756 10.5133L12.3025 10.5402ZM13.5649 12.0981L13.5381 11.9638L13.3769 11.8027H12.9472L12.8397 11.8295L12.786 11.8832L12.7323 11.9101L12.6785 11.8832L12.598 11.8563L12.4636 11.9101L12.3831 11.9907L12.4099 12.0176L12.4905 12.0712L12.5442 12.2056V12.3667L12.4905 12.5547L12.598 12.501L12.7054 12.4204L12.7323 12.313V12.1787L12.6785 12.0176L12.786 12.0444L12.8397 12.125L12.8665 12.2056L12.9204 12.2324L12.974 12.1787L13.001 12.125L13.0277 11.9369L13.0815 11.9907L13.1083 12.125V12.2593L13.1352 12.2862H13.162L13.3232 12.2324L13.4306 12.2593L13.5113 12.2862L13.5649 12.2593V12.0981ZM13.7798 11.8295L13.9679 12.0176L14.0485 12.125V12.2324L14.0753 12.1787L14.129 12.125H14.156L14.2635 12.2862L14.344 12.3667L14.4515 12.4204L14.5319 12.4742L14.6126 12.5817L14.6663 12.6622L14.7737 12.7428L14.8812 12.6891L14.9081 12.5817V12.5278L14.9349 12.6085L15.0424 12.9577L15.1229 13.0651L15.2035 13.1188L15.2572 13.0919V13.0651L15.2303 12.9846L15.1498 12.8771L15.143 12.8601C15.1055 12.7978 15.0827 12.7359 15.0871 12.6803L15.0874 12.6775L15.0692 12.5547L15.0424 12.3398L14.9617 12.2056L14.9081 12.0712V11.8832L14.8543 11.6415L14.7201 11.3728L14.6931 11.2117L14.7469 11.0237L14.8006 10.8088L14.7737 10.5939L14.6931 10.4865L14.5589 10.4058L14.4245 10.3522L14.3171 10.2985H14.2365L14.129 10.3522L14.0485 10.379H13.9142L13.941 10.5133L14.1022 10.4865H14.2096L14.3171 10.5402L14.4783 10.6207L14.6126 10.7282L14.6394 10.7819L14.6126 10.8356L14.5589 10.7819L14.4783 10.7013L14.2365 10.5671L14.0217 10.5939L13.941 10.6207L13.9142 10.6744L13.941 10.7013H13.9947L14.1022 10.6476L14.156 10.6744L14.2365 10.7013L14.4515 10.8088L14.5589 10.9431L14.5857 11.0506L14.6126 11.2117V11.346L14.5857 11.3728L14.5051 11.3191L14.3708 11.1848L14.5051 11.158L14.4783 10.9699L14.4185 10.9043L14.3661 10.8791L14.3579 10.9258L14.3935 11.0049L14.3171 11.0506H14.2096L14.129 10.9968L14.0753 10.8356V10.8088L14.0217 10.7819L13.941 10.8088L13.9679 10.9431L14.1022 11.1312L14.1828 11.2117L14.2096 11.2922L14.1828 11.4266L14.1022 11.561L14.0217 11.6683L13.941 11.7489L13.8335 11.7757L13.753 11.8027L13.7798 11.8295ZM15.0424 13.7903L15.1766 13.656L15.1498 13.7098L15.0692 13.9247V14.059L15.1229 14.1396L15.2572 14.1665L15.4722 14.1933H15.5258L15.499 14.2201L15.3378 14.3008L15.2035 14.3276L15.0692 14.2739L14.9886 14.1933L14.9617 14.0858V13.9247L15.0424 13.7903ZM14.2096 13.8441L14.2635 13.7367V13.6292L14.2096 13.4681L14.156 13.3337L14.129 13.2262L14.156 13.1726L14.1828 13.2262L14.2365 13.3069L14.3708 13.3606L14.4245 13.3874L14.4515 13.4412L14.4245 13.6024L14.344 13.7635L14.2096 13.8709V13.8441ZM11.1206 14.2201L11.1475 14.3008V14.4619L11.0132 14.623L10.9863 14.5425L11.04 14.435L11.0669 14.4082L10.9863 14.3813L10.8251 14.3545L10.637 14.3276L10.5296 14.247V14.2201L10.5565 14.1933L10.637 14.1396L10.7714 14.1127H10.9058L11.04 14.1396L11.1206 14.2201ZM12.4905 12.9577L12.5711 12.904L12.6248 12.8502L12.6785 12.8771L12.7592 12.9577L12.786 13.0919V13.2262L12.7323 13.3606L12.6517 13.4681L12.6785 13.6024L12.786 13.7098L12.8665 13.7367H13.001L13.0546 13.7635L12.9472 13.8172V13.8709L12.9204 13.9784L12.8129 14.0321L12.7054 14.059H12.4905L12.4099 13.9784L12.3831 13.8709V13.5217L12.3563 13.3874L12.2756 13.28L12.2219 13.2262L12.1951 13.1457L12.2219 13.0383L12.2756 12.9577H12.4905ZM13.1083 13.0651L13.162 12.9577L13.2158 12.8502L13.2426 12.7965L13.2695 12.8233V13.1188L13.2964 13.2262L13.3501 13.3069L13.4306 13.3606L13.5113 13.4412L13.6455 13.5755L13.6724 13.6829L13.6455 13.8172L13.6187 13.7903V13.7098L13.5649 13.6292L13.4844 13.5487L13.2964 13.4412L13.162 13.3069L13.1083 13.1457V13.0651ZM10.5565 12.7428L10.5833 12.7965L10.5565 12.7696V12.7428ZM13.6056 11.2323L13.6601 11.2959L13.6455 11.2922L13.6056 11.2323ZM11.1475 9.17026L11.1206 9.51941L11.1475 9.57322L11.1743 9.60007H11.4161L11.4429 9.62689L11.4161 9.70746L11.2817 9.89555L11.2281 9.97603L11.2012 10.0567L11.3087 10.1642L11.4161 10.191L11.5235 10.1372L11.7653 10.0567H11.9533L12.007 10.0297L12.0339 10.0029L12.007 9.94922V9.89555L11.9264 9.84174L11.7653 9.76122L11.6042 9.65374L11.5504 9.62689V9.60007H11.6042L11.7384 9.62689L12.0608 9.73436L12.1683 9.76122L12.2219 9.68055L12.2488 9.60007L12.3025 9.54627L12.3563 9.60007L12.4636 9.81493L12.598 9.86869L12.7592 9.89555L12.9472 9.94922L13.0815 10.0297L13.1083 10.191L13.1352 10.3522L13.2695 10.4596L13.3769 10.5939L13.4844 10.7819L13.5381 11.0774L13.5919 11.2117L13.6056 11.2323L13.5649 11.1848L13.4306 10.9163L13.3769 10.9699L13.3501 11.0506L13.3232 11.158L13.2695 11.2654L13.162 11.2922L13.001 11.346L12.8935 11.4266L12.8397 11.534L12.8935 11.5878L13.001 11.6147L13.2158 11.5878L13.3501 11.534L13.4576 11.5072H13.5919L13.6724 11.5878L13.6994 11.6953V11.7489L13.7261 11.7757L13.7798 11.7489L13.9142 11.6683L14.0217 11.534L14.0485 11.3997L14.0217 11.3191L13.9679 11.3997L13.8873 11.4266L13.7261 11.3728L13.6601 11.2959L13.8605 11.346H13.941L13.9947 11.3191L14.0485 11.1848L13.9947 11.0774L13.941 11.0237L13.8605 10.9431L13.7261 10.7819L13.6455 10.5671L13.6724 10.379L13.7261 10.191L13.6994 10.0567L13.6187 9.92236L13.5649 9.76122V9.62689L13.5919 9.57322L13.6187 9.62689L13.6724 9.73436L13.753 9.86869L13.8335 9.94922L13.9142 10.0029L13.9679 10.0297L13.9947 10.191H14.1022L14.156 10.1104L14.1828 10.0567H14.2365L14.344 10.1642L14.5051 10.2178H14.5589V10.1642L14.5051 10.1104L14.3708 9.86869L14.2365 9.54627L14.1022 9.19712L13.941 8.9285L13.7261 8.76736L13.5113 8.68669L13.3232 8.63302L13.1889 8.55241L13.1083 8.49874L12.974 8.47188H12.6517L12.2756 8.49874L11.9533 8.47188L11.7922 8.44493L11.631 8.47188L11.2817 8.57922L10.9863 8.76736L10.7446 8.9285L10.8251 9.00903L11.0669 8.90169L11.2281 8.8747L11.2549 8.90169L11.2281 8.9285L11.1743 9.00903L11.1475 9.17026ZM9.50896 9.68055V9.78807L9.56268 9.89555V9.92236H9.45516L9.4283 10.0029L9.45516 10.1104L9.50896 10.191L9.58958 10.2178H9.56268L9.4821 10.2447L9.40149 10.2178L9.32091 10.1642V10.2178L9.34782 10.2985L9.37463 10.4596L9.32091 10.5939L9.21349 10.6744L9.10601 10.8088L9.05225 10.9699L9.02548 11.2385L8.99853 11.3728L8.91805 11.5072L8.75686 11.8295L8.67625 12.0444L8.62253 12.3398V12.716L8.7031 13.1726L8.75686 13.3874L8.78372 13.5487C8.80259 13.6243 8.81248 13.6671 8.81629 13.684C8.81135 13.6604 8.7972 13.5897 8.78372 13.4949L8.75686 13.2262V12.904L8.81058 12.5817L8.91805 12.3398L9.02548 12.1519L9.10601 11.9907V11.6953L9.07915 11.6147L9.10601 11.5072L9.15972 11.3728L9.2672 11.1312L9.29401 10.9968L9.2672 10.9163V10.8894L9.29401 10.9431L9.50896 11.158L9.58958 11.2117L9.61635 11.158V11.0506L9.4821 10.7013L9.45516 10.5939L9.4821 10.5671L9.56268 10.5402L9.64325 10.4865L9.85811 10.1104L9.93873 10.0029L9.9924 9.73436V9.68055H10.073L10.2073 9.65374L10.288 9.57322L10.3417 9.46579L10.3685 9.27774V9.03598L10.3147 8.95536L10.2073 9.14336L10.073 9.25083L9.9924 9.3046L9.88506 9.33141L9.72378 9.27774L9.61635 9.17026L9.56268 9.14336V9.25083L9.58958 9.35831L9.72378 9.4926L9.77754 9.54627V9.57322L9.69696 9.60007L9.58958 9.57322L9.50896 9.54627L9.4821 9.57322L9.50896 9.68055ZM9.21349 9.78807L9.32091 9.65374L9.34782 9.51941L9.37463 9.35831V9.19712L9.40149 9.08965L9.45516 9.00903H9.67006L9.85811 9.03598H9.93873L10.0193 8.98217L10.073 8.8747L10.0193 8.71369L9.93873 8.55241L9.64325 8.63302L9.32091 8.84788L9.02548 9.17026L8.72992 9.60007L8.46143 10.0835L8.21958 10.5939L8.03153 11.1312L7.89734 11.6415L7.81672 12.1787C7.98072 15.6227 8.13901 12.904 8.08529 12.3936L8.05848 11.9369L8.11215 11.5072L8.21958 11.1312L8.19277 11.6953L8.21958 12.2324L8.30015 12.6891L8.38077 13.0383L8.46143 13.28L8.5151 13.3337L8.54191 13.3069V13.2262L8.5151 13.0919L8.46143 12.904L8.40763 12.4473L8.43444 11.9907L8.54191 11.561L8.67625 11.158L8.81058 10.7819L8.94487 10.4596L9.05225 10.191L9.07915 10.0297V9.92236L9.10601 9.86869L9.21349 9.78807ZM12.8025 7.07117C12.4845 6.76938 11.6046 7.63758 11.2865 7.3357C11.239 6.25719 11.247 6.11832 11.7594 5.24722C11.8387 5.12636 11.9095 5.01036 11.9723 4.89907C12.915 3.22824 12.0901 2.56951 11.922 1.25962C12.3143 2.67013 13.2945 2.76409 12.8159 5.0393C12.7946 5.14084 12.7214 5.3929 12.7543 5.31514L12.8539 5.08013C14.0919 1.86537 11.4954 2.58834 12.026 0C10.72 2.41957 13.6914 2.38296 11.0706 5.44829C10.6506 5.93943 10.6817 6.78631 10.775 7.3891L10.7273 7.40511L10.6671 7.43487L10.515 7.54308C10.0178 7.19647 9.40661 6.65002 9.33793 6.02232C8.89945 2.0134 6.89109 4.20346 6.02258 1.59466C6.10129 4.34305 8.65619 2.8257 7.9192 6.79071C7.77425 7.5707 8.48607 8.47524 8.87668 8.90278C8.29058 8.89207 7.16851 8.78541 6.70581 8.15422C4.32153 4.90166 3.67732 7.80244 1.62069 5.97741C3.06317 8.31827 4.51711 5.72675 5.86134 9.52889C6.1257 10.277 7.19446 10.7043 7.74654 10.8793C7.23366 11.1632 6.20849 11.6318 5.49215 11.3165C1.80102 9.69185 2.69351 12.5262 0 11.9739C2.41956 13.2799 2.38296 10.3087 5.44823 12.9293C6.03252 13.429 7.12056 13.2902 7.70194 13.1678L7.70757 13.2354C7.3875 13.7492 6.76116 14.5812 6.02231 14.6619C2.01339 15.1005 4.20349 17.1089 1.59466 17.9774C4.34304 17.8986 2.82567 15.3438 6.79069 16.0807C7.57069 16.2257 8.47522 15.5138 8.90276 15.1233C8.89206 15.7094 8.78549 16.8315 8.15421 17.2942C4.9016 19.6785 7.80247 20.3227 5.97739 22.3793C8.31825 20.9368 5.72674 19.4828 9.52897 18.1386C10.0197 17.9651 10.3724 17.4454 10.6065 16.9525C10.6331 16.9952 10.6619 17.0379 10.6933 17.0809C10.7384 17.1426 10.7914 17.1962 10.8484 17.2469C11.1744 17.5366 11.3211 17.6371 11.3657 18.1168L11.3518 18.4167C11.4935 18.0347 11.4578 17.7205 11.4995 17.315C11.5826 17.4583 11.7736 17.8431 11.8024 17.8967L11.9911 18.2468L12.1556 18.4934L12.249 18.588L12.3543 18.623L12.4158 18.6076C12.3637 18.7309 12.2824 18.9017 12.1673 19.0889C12.0743 19.2398 11.9225 19.4755 11.7883 19.7378C11.2271 20.8353 11.959 21.519 12.0958 22.4181C11.7242 21.9038 11.71 21.8751 11.4671 21.618C11.2241 21.3608 11.0098 20.7464 10.9669 20.1891C10.9257 19.652 11.006 19.2775 11.1822 18.8278C9.85911 22.1483 12.5096 21.3873 11.9739 24C13.1969 21.734 10.6688 21.6223 12.4951 19.0997L12.5174 19.0552C12.9635 18.4602 13.2762 18.1243 13.2831 17.3407L13.3394 17.3294L13.4644 17.2668L13.5413 17.1515L13.4959 17.0605L13.403 16.9987L13.2852 16.9396L12.9822 16.8846C12.2599 16.7942 12.5409 16.287 13.1836 16.2842L13.2919 16.3082C13.5355 16.4707 14.5576 17.0236 14.662 17.9777C15.1005 21.9866 17.1088 19.7965 17.9774 22.4053C17.8986 19.6569 15.3437 21.1742 16.0807 17.2093C16.1275 16.9554 16.0844 16.6893 15.9912 16.4307C15.9875 17.0589 15.8994 17.2837 15.8407 17.6553C15.7821 18.0268 15.7333 18.7113 15.8309 19.0536C15.9287 19.3958 15.9385 19.8749 16.2319 20.1096C16.5252 20.3443 16.5351 20.3541 17.0435 20.9603C16.7599 20.755 16.3493 20.6181 16.3493 20.6181C16.3493 20.6181 16.3395 20.6181 16.0168 20.403C15.6941 20.1879 15.4986 19.9727 15.3323 19.6598C15.1661 19.3469 15.0488 19.0047 15.0488 18.6722C15.0488 18.3398 14.8923 17.4304 14.6478 16.9806C14.4833 16.6779 14.3844 16.5422 14.3373 16.4857L14.426 16.4097L14.6653 16.2766L14.8273 16.1423L14.8716 16.164C15.0549 16.2539 15.1367 16.2175 15.2839 16.0856C15.3741 16.0478 15.6027 15.9405 15.6351 15.8534C15.6442 15.8289 15.6512 15.8045 15.6573 15.78C15.6945 15.6265 15.6829 15.4699 15.7737 15.2938L15.6715 15.4575L15.5885 15.6233L15.5603 15.7072L15.5367 15.7541L15.4647 15.8491L15.4138 15.8829L15.4303 15.8623L15.5197 15.7433L15.549 15.4793L15.5215 15.3691V15.1179C16.1246 15.1699 16.9223 15.3384 17.2942 15.8457C19.6784 19.0983 20.3227 16.1975 22.3792 18.0226C20.9367 15.6816 19.4828 18.2732 18.1386 14.471C17.9923 14.0569 17.5993 13.7411 17.1839 13.512C17.5818 13.8447 18.0469 14.3578 18.1559 14.8532C18.2937 15.4799 18.553 15.7469 19.0495 16.4543C19.546 17.1618 21.4202 17.286 21.0355 17.2362C20.6507 17.1866 20.39 17.3232 19.7322 17.3232C19.0743 17.3232 18.5406 16.9757 18.0442 16.3798C17.5477 15.7841 17.2994 15.449 16.8526 15.1387C16.4833 14.8821 16.2184 14.7662 16.0302 14.6462L16.0317 14.6267C16.0501 14.3787 15.8961 14.2161 15.8669 14.0042C15.8288 13.7264 15.7667 13.4332 15.5566 13.2316C15.4267 13.107 15.281 12.9927 15.1865 12.8365L15.1441 12.73L15.1367 12.6781C15.1582 12.4061 15.1668 12.1329 15.0974 11.8672C15.2046 11.6117 15.4494 11.5445 15.7774 11.6592C16.4505 11.8946 16.3437 11.3034 16.6168 11.1916C16.8899 11.08 17.225 10.9558 17.8704 11.1544C18.5158 11.353 18.8137 11.7253 19.2606 11.9239C19.7073 12.1226 20.6755 12.5321 21.0975 12.4204C21.5195 12.3087 21.9167 12.0356 22.2891 11.9488C21.3581 12.7804 20.7748 13.0038 20.3652 13.0162C19.9556 13.0286 19.1489 12.7308 18.8261 12.557C18.5033 12.3832 18.0193 12.4701 17.461 12.6382L17.4591 12.6387C17.8217 12.5576 18.1945 12.5452 18.5078 12.6835C22.199 14.3081 21.3064 11.4738 24 12.026C21.5804 10.72 21.617 13.6914 18.5517 11.0707C17.9487 10.5551 16.8094 10.7192 16.244 10.8438C16.5462 10.3416 17.1996 9.423 17.9777 9.33794C21.9866 8.89947 19.7964 6.89115 22.4053 6.02259C19.6569 6.1014 21.1743 8.65621 17.2093 7.91922C17.047 7.88905 16.8793 7.89612 16.7117 7.92951C16.655 7.94027 16.5849 7.94204 16.688 7.95592C16.8277 7.9752 17.193 8.02742 17.5173 8.0902C17.9283 8.16978 18.3659 8.30234 18.8565 8.18303C19.3471 8.06371 19.8642 7.98409 20.156 7.66593C20.4476 7.34763 20.3282 7.19674 21.0046 6.65814C20.7924 6.85708 20.5405 7.42721 20.2752 7.9311C20.0101 8.43495 19.6255 8.55431 19.1747 8.79299C18.7239 9.03167 18.0212 8.92555 17.5571 9.01837C17.093 9.11115 16.788 9.5753 16.377 9.97308C16.1424 10.2001 15.964 10.2695 15.854 10.2873L15.852 10.2848L15.654 10.2L15.4755 10.0976L15.3579 9.98002L15.3341 9.78984L15.3577 9.6718L15.4366 9.54019L15.4947 9.3663V9.16414L15.4388 8.94157L15.3535 8.74132L15.3111 8.6905L15.2138 8.57382L15.1179 8.47782L15.0704 8.43023L14.8645 8.34195H14.7688L14.7637 8.29018L14.7954 8.13163L14.8227 7.9399L14.8231 7.76746L14.7927 7.64579L14.6808 7.47802L14.5093 7.19211L14.3393 7.15818L14.1701 7.22582L14.1335 7.3357L14.1336 7.42539L14.1599 7.69179L14.1354 7.86405L14.0649 7.9816L14.0025 8.02828L13.7612 7.88551L13.7027 7.34532C13.7027 7.34532 13.8524 6.68142 14.2169 6.40145C14.5813 6.12158 15.6163 5.91335 16.0914 5.45772C16.2733 5.28333 16.4619 5.05736 16.6242 4.83365C17.1234 4.14589 16.9837 3.96954 17.0505 3.20742C17.0743 2.93503 17.1408 2.6729 17.2889 2.48327C17.1861 3.14849 17.3398 3.74053 17.3932 4.39686C17.4356 4.91849 17.2062 5.35719 17.1748 5.4144C18.0946 3.99214 16.5774 3.24893 18.0226 1.62074C15.6818 3.06324 18.2732 4.51703 14.471 5.86136C13.9354 6.05063 13.5642 6.65243 13.3323 7.18145L13.147 7.10737L12.8719 7.07974L12.8025 7.07117ZM14.6652 13.4777L14.736 13.5486L14.6703 13.6143L14.6467 13.4962L14.6652 13.4777Z" fill="#141414"/>
</svg>
