<svg width="17" height="14" viewBox="0 0 17 14" fill="none" xmlns="http://www.w3.org/2000/svg">
<path fill-rule="evenodd" clip-rule="evenodd" d="M1.667 0.333344C0.83857 0.33334 0.166992 1.00491 0.166992 1.83334V12.1666C0.166992 12.9951 0.83856 13.6666 1.66698 13.6666L10.3337 13.6667C11.1621 13.6667 11.8337 12.9951 11.8337 12.1667V9.83926L14.4177 11.8319C15.4038 12.5924 16.8337 11.8894 16.8337 10.6441V3.37201C16.8337 2.12022 15.3908 1.41914 14.4067 2.19273L11.8337 4.21525V1.83339C11.8337 1.00496 11.1621 0.333392 10.3337 0.333387L1.667 0.333344ZM11.8337 6.33518V7.7346L15.167 10.3051V3.71501L11.8337 6.33518ZM10.167 6.2542L10.167 2.00005L1.83366 2.00001V12L10.167 12L10.167 7.81654V6.2542Z" fill="currentColor"/>
</svg>
