<svg width="24" height="24" viewBox="0 0 24 24" fill="none" xmlns="http://www.w3.org/2000/svg">
<g opacity="0.6">
<path fill-rule="evenodd" clip-rule="evenodd" d="M5 5V12.9194L9 9.71936L13.9258 13.66L16 11.5858L19 14.5858V5H5ZM5 19V15.4806L9 12.2806L14.0742 16.34L16 14.4142L19 17.4142V19H5ZM3 4.8C3 3.80589 3.80589 3 4.8 3H19.2C20.1941 3 21 3.80589 21 4.8V19.2C21 20.1941 20.1941 21 19.2 21H4.8C3.80589 21 3 20.1941 3 19.2V4.8ZM15.5 10C16.3284 10 17 9.32843 17 8.5C17 7.67157 16.3284 7 15.5 7C14.6716 7 14 7.67157 14 8.5C14 9.32843 14.6716 10 15.5 10Z" fill="currentColor"/>
</g>
</svg>
