<svg width="16" height="16" viewBox="0 0 16 16" fill="none" xmlns="http://www.w3.org/2000/svg">
<path fill-rule="evenodd" clip-rule="evenodd" d="M7.2846 1.33325H8.71549C9.93112 1.33323 10.911 1.33322 11.6816 1.43683C12.4817 1.5444 13.1554 1.77453 13.6904 2.30956C14.2254 2.8446 14.4556 3.51827 14.5631 4.31836C14.6667 5.089 14.6667 6.06885 14.6667 7.28449V8.71535C14.6667 9.93099 14.6667 10.9108 14.5631 11.6815C14.4556 12.4816 14.2254 13.1552 13.6904 13.6903C13.1554 14.2253 12.4817 14.4554 11.6816 14.563C10.911 14.6666 9.93111 14.6666 8.71547 14.6666H7.28462C6.06897 14.6666 5.08913 14.6666 4.31849 14.563C3.51839 14.4554 2.84472 14.2253 2.30969 13.6903C1.77465 13.1552 1.54452 12.4816 1.43695 11.6815C1.33334 10.9108 1.33336 9.931 1.33337 8.71536V7.28448C1.33336 6.06884 1.33334 5.089 1.43695 4.31836C1.54452 3.51827 1.77465 2.8446 2.30969 2.30956C2.84472 1.77453 3.51839 1.5444 4.31849 1.43683C5.08912 1.33322 6.06896 1.33323 7.2846 1.33325ZM4.49615 2.75827C3.8439 2.84596 3.49851 3.00636 3.2525 3.25237C3.00648 3.49838 2.84609 3.84378 2.75839 4.49603C2.66812 5.16745 2.66671 6.05733 2.66671 7.33325V8.66659C2.66671 9.94251 2.66812 10.8324 2.75839 11.5038C2.84609 12.1561 3.00648 12.5015 3.2525 12.7475C3.49851 12.9935 3.8439 13.1539 4.49615 13.2416C5.16757 13.3318 6.05745 13.3333 7.33338 13.3333H8.66671C9.94263 13.3333 10.8325 13.3318 11.5039 13.2416C12.1562 13.1539 12.5016 12.9935 12.7476 12.7475C12.9936 12.5015 13.154 12.1561 13.2417 11.5038C13.332 10.8324 13.3334 9.94251 13.3334 8.66659V7.33325C13.3334 6.05733 13.332 5.16745 13.2417 4.49603C13.154 3.84378 12.9936 3.49838 12.7476 3.25237C12.5016 3.00636 12.1562 2.84596 11.5039 2.75827C10.8325 2.668 9.94263 2.66659 8.66671 2.66659H7.33338C6.05745 2.66659 5.16757 2.668 4.49615 2.75827Z" fill="#4A5F6D"/>
<circle cx="11" cy="5" r="1" fill="#4A5F6D"/>
<path fill-rule="evenodd" clip-rule="evenodd" d="M8.00004 9.33325C8.73642 9.33325 9.33337 8.7363 9.33337 7.99992C9.33337 7.26354 8.73642 6.66659 8.00004 6.66659C7.26366 6.66659 6.66671 7.26354 6.66671 7.99992C6.66671 8.7363 7.26366 9.33325 8.00004 9.33325ZM8.00004 10.6666C9.4728 10.6666 10.6667 9.47268 10.6667 7.99992C10.6667 6.52716 9.4728 5.33325 8.00004 5.33325C6.52728 5.33325 5.33337 6.52716 5.33337 7.99992C5.33337 9.47268 6.52728 10.6666 8.00004 10.6666Z" fill="#4A5F6D"/>
</svg>
