<svg width="24" height="24" viewBox="0 0 24 24" fill="none" xmlns="http://www.w3.org/2000/svg">
<path fill-rule="evenodd" clip-rule="evenodd" d="M16.0429 11.7638C16.8999 10.8484 17.1778 9.43307 16.8914 7.44095C16.4914 4.66043 14.6627 3 12.0002 3C9.33768 3 7.50899 4.66043 7.10893 7.44291C6.82257 9.43307 7.10051 10.8484 7.95748 11.7638C8.97657 12.8533 10.5737 13 12.0002 13C13.4267 13 15.0238 12.8524 16.0429 11.7638ZM14.975 7.68225C15.1802 9.11017 14.9458 9.90044 14.5261 10.3488C13.9955 10.9156 13.099 11.0501 12.0001 11.0501C10.9007 11.0501 10.0046 10.9159 9.47414 10.3488C9.05431 9.90039 8.82002 9.10998 9.02523 7.68378C9.15743 6.76433 9.51521 6.09145 10.001 5.6502C10.4836 5.21193 11.1493 4.95001 12.0001 4.95001C12.8509 4.95001 13.5167 5.21194 13.9993 5.6501C14.4851 6.0912 14.8428 6.7637 14.975 7.68225ZM5.4012 19.3447C6.01921 17.9637 7.40532 17 9.01831 17H14.9819C16.5949 17 17.981 17.9637 18.599 19.3447L16.6751 19.5329C13.5659 19.8372 10.4343 19.8372 7.32507 19.5329L5.4012 19.3447ZM14.9819 15H9.01831C5.70394 15 3.02607 17.7037 3.0579 21.0179C3.05848 21.0788 3.10488 21.1295 3.1655 21.1354L7.13027 21.5234C10.3691 21.8404 13.6311 21.8404 16.8699 21.5234L20.8347 21.1354C20.8953 21.1295 20.9417 21.0788 20.9423 21.0179C20.9741 17.7037 18.2963 15 14.9819 15Z" fill="currentColor"/>
</svg>
