<svg width="21" height="18" viewBox="0 0 21 18" fill="none" xmlns="http://www.w3.org/2000/svg">
<path fill-rule="evenodd" clip-rule="evenodd" d="M2.21922 2H0.8C0.358172 2 0 1.64183 0 1.2V0.8C0 0.358172 0.358172 0 0.8 0H3C3.45887 0 3.85885 0.312297 3.97014 0.757464L4.7872 4.02568L19.0333 4.50056C19.6434 4.52089 20.0931 5.07831 19.9839 5.67889L18.9839 11.1789C18.9026 11.6261 18.5299 11.9622 18.0767 11.9971L5.0767 12.9971C4.55123 13.0375 4.08458 12.6631 4.01005 12.1414L3.01735 5.19249L2.21922 2ZM5.15861 6.03918L5.85745 10.9311L17.1541 10.0621L17.8089 6.46085L5.15861 6.03918Z" fill="currentColor"/>
<circle cx="7" cy="16" r="2" fill="currentColor"/>
<circle cx="15" cy="16" r="2" fill="currentColor"/>
</svg>
