<svg width="56" height="56" viewBox="0 0 56 56" fill="none" xmlns="http://www.w3.org/2000/svg">
<path d="M46.3504 25.1996C46.3504 31.7104 42.4241 37.7082 37.9665 42.1657C35.7557 44.3765 33.4628 46.1584 31.567 47.3801C30.6182 47.9916 29.7852 48.4522 29.1254 48.7548C28.7951 48.9063 28.5236 49.0111 28.3133 49.076C28.1093 49.139 28.014 49.1482 28.0016 49.1494C28.0002 49.1496 27.9998 49.1496 28.0004 49.1496C28.001 49.1496 28.0006 49.1496 27.9992 49.1494C27.9868 49.1482 27.8915 49.139 27.6875 49.076C27.4772 49.0111 27.2057 48.9063 26.8754 48.7548C26.2156 48.4522 25.3826 47.9916 24.4338 47.3801C22.5379 46.1584 20.245 44.3765 18.0343 42.1657C13.5767 37.7082 9.65039 31.7104 9.65039 25.1996C9.65039 15.0652 17.866 6.84961 28.0004 6.84961C38.1348 6.84961 46.3504 15.0652 46.3504 25.1996Z" fill="white" stroke="#FF3055" stroke-width="2.5"/>
</svg>
