<svg width="56" height="56" viewBox="0 0 56 56" fill="none" xmlns="http://www.w3.org/2000/svg">
<path d="M46.35 25.2001C46.35 31.7109 42.4237 37.7087 37.9661 42.1662C35.7554 44.377 33.4625 46.1589 31.5666 47.3806C30.6178 47.9921 29.7848 48.4527 29.125 48.7553C28.7947 48.9068 28.5232 49.0116 28.3129 49.0765C28.1089 49.1394 28.0136 49.1487 28.0012 49.1499C27.9998 49.1501 27.9994 49.1501 28 49.1501C28.0006 49.1501 28.0002 49.1501 27.9988 49.1499C27.9864 49.1487 27.8911 49.1394 27.6871 49.0765C27.4768 49.0116 27.2053 48.9068 26.875 48.7553C26.2152 48.4527 25.3822 47.9921 24.4334 47.3806C22.5375 46.1589 20.2447 44.377 18.0339 42.1662C13.5763 37.7087 9.65 31.7109 9.65 25.2001C9.65 15.0657 17.8656 6.8501 28 6.8501C38.1344 6.8501 46.35 15.0657 46.35 25.2001Z" fill="#FF3055" stroke="#FF3055" stroke-width="2.5"/>
<path fill-rule="evenodd" clip-rule="evenodd" d="M19.7696 27.2802C19.9256 27.1252 20.1775 27.1252 20.3335 27.2802L26 32.9105L36.1567 22.8085C36.3127 22.6534 36.5647 22.6533 36.7207 22.8084L37.2048 23.2893C37.3621 23.4457 37.3622 23.7002 37.2049 23.8567L26.2819 34.7197C26.126 34.8748 25.874 34.8749 25.7179 34.7198L19.2856 28.3287C19.1282 28.1722 19.1282 27.9176 19.2856 27.7612L19.7696 27.2802Z" fill="white"/>
</svg>
