<svg width="17" height="18" viewBox="0 0 17 18" fill="none" xmlns="http://www.w3.org/2000/svg">
<path fill-rule="evenodd" clip-rule="evenodd" d="M5.8 0C5.35817 0 5 0.358171 5 0.799999V17.2C5 17.6418 5.35817 18 5.8 18H6.2C6.64183 18 7 17.6418 7 17.2V0.8C7 0.358172 6.64183 0 6.2 0H5.8ZM0.8 9C0.358172 9 0 9.35817 0 9.8V17.2C0 17.6418 0.358172 18 0.8 18H1.2C1.64183 18 2 17.6418 2 17.2V9.8C2 9.35817 1.64183 9 1.2 9H0.8ZM10 3.8C10 3.35817 10.3582 3 10.8 3H11.2C11.6418 3 12 3.35817 12 3.8V17.2C12 17.6418 11.6418 18 11.2 18H10.8C10.3582 18 10 17.6418 10 17.2V3.8ZM15.8 6C15.3582 6 15 6.35817 15 6.8V17.2C15 17.6418 15.3582 18 15.8 18H16.2C16.6418 18 17 17.6418 17 17.2V6.8C17 6.35817 16.6418 6 16.2 6H15.8Z" fill="currentColor"/>
</svg>
