<svg width="24" height="24" viewBox="0 0 24 24" fill="none" xmlns="http://www.w3.org/2000/svg">
<rect width="24" height="24" rx="8" fill="#0F754E"/>
<path d="M7.73144 9.6001V9.60217C7.72937 9.60217 7.00826 9.6001 6.81621 10.2886C6.6402 10.9201 6.14325 12.6642 6.12979 12.7123H5.99209C5.99209 12.7123 5.48426 10.9295 5.30566 10.2865C5.11309 9.59803 4.38991 9.6001 4.38991 9.6001H2.74219V14.8409H4.38991V11.7287H4.45876H4.52761L5.48892 14.8409H6.63296L7.59426 11.7308H7.73144V14.8409H9.37917V9.6001H7.73144Z" fill="white"/>
<path d="M13.7493 9.6001C13.7493 9.6001 13.2664 9.64358 13.0401 10.1493L11.8728 12.7128H11.7356V9.6001H10.0879V14.8409H11.644C11.644 14.8409 12.1498 14.7954 12.3765 14.2917L13.5205 11.7287H13.6577V14.8409H15.3054V9.6001H13.7493Z" fill="white"/>
<path d="M16.0391 11.9795V14.8401H17.6868V13.1696H19.4717C20.2497 13.1696 20.9087 12.6732 21.1536 11.9795H16.0391Z" fill="white"/>
<path d="M19.4707 9.6001H15.8066C15.9899 10.5982 16.7379 11.399 17.706 11.6599C17.9254 11.7194 18.1568 11.7515 18.395 11.7515H21.2188C21.2442 11.6325 21.2556 11.5113 21.2556 11.3855C21.2556 10.3989 20.4568 9.6001 19.4707 9.6001Z" fill="white"/>
</svg>
