<svg width="14" height="14" viewBox="0 0 14 14" fill="none" xmlns="http://www.w3.org/2000/svg">
<circle cx="7" cy="7" r="3" fill="#001E34"/>
<path d="M13.8 7C13.9105 7 14.0003 6.91043 13.9971 6.80002C13.9728 5.94895 13.7934 5.10886 13.4672 4.32122C13.1154 3.47194 12.5998 2.70026 11.9497 2.05025C11.2997 1.40024 10.5281 0.884626 9.67878 0.532843C8.89114 0.20659 8.05105 0.0271796 7.19998 0.00285695C7.08957 -0.000298488 7 0.089543 7 0.2V0.85C7 0.960457 7.08957 1.04965 7.19997 1.05336C7.91312 1.07734 8.61672 1.22943 9.27697 1.50292C9.99885 1.80193 10.6548 2.24021 11.2073 2.79271C11.7598 3.34522 12.1981 4.00115 12.4971 4.72303C12.7706 5.38328 12.9227 6.08688 12.9466 6.80003C12.9504 6.91043 13.0395 7 13.15 7H13.8Z" fill="#64A3A0"/>
</svg>
