<svg width="14" height="14" viewBox="0 0 14 14" fill="none" xmlns="http://www.w3.org/2000/svg">
<circle cx="7" cy="7" r="3" fill="#001E34"/>
<path d="M7 13.8C7 13.9105 7.08959 14.0003 7.2 13.9971C8.98398 13.9462 10.6842 13.2153 11.9497 11.9497C13.2625 10.637 14 8.85652 14 7C14 5.14349 13.2625 3.36301 11.9497 2.05025C10.6842 0.784714 8.98399 0.0537948 7.2 0.00285453C7.08959 -0.000298199 7 0.089543 7 0.2V0.85C7 0.960457 7.08961 1.04965 7.20001 1.05336C8.70544 1.10394 10.1387 1.7241 11.2073 2.79272C12.3231 3.90856 12.95 5.42196 12.95 7C12.95 8.57804 12.3231 10.0914 11.2073 11.2073C10.1387 12.2759 8.70544 12.8961 7.20001 12.9466C7.08961 12.9504 7 13.0395 7 13.15V13.8Z" fill="#64A3A0"/>
</svg>
