<svg width="13" height="13" viewBox="0 0 13 13" fill="none" xmlns="http://www.w3.org/2000/svg">
<path fill-rule="evenodd" clip-rule="evenodd" d="M1.94771 2.06673C1.6395 3.80291 2.20898 6.26726 3.70376 8.20431C5.20418 10.1487 7.60548 11.521 10.9333 11.0347V8.96109L9.14447 8.44917L8.65534 9.18405C8.48031 9.44702 8.15526 9.56656 7.85156 9.47965C5.951 8.93575 4.39635 7.56503 3.6187 5.74756L3.56502 5.62212C3.44797 5.34856 3.50903 5.03132 3.71926 4.82075L4.58743 3.95118L4.04988 2.06673H1.94771ZM0.708822 1.48075C0.821919 1.01484 1.23957 0.733398 1.66917 0.733398H4.30143C4.74807 0.733398 5.14055 1.02958 5.26307 1.45909L5.86961 3.58543C6.00228 4.05051 5.8727 4.55097 5.531 4.89322L4.95696 5.46819C5.5428 6.66339 6.56141 7.5891 7.80212 8.05956L8.03452 7.7104C8.3561 7.22724 8.9533 7.00761 9.5113 7.16729L11.5418 7.74836C11.9709 7.87116 12.2667 8.26345 12.2667 8.70977V11.3223C12.2667 11.8048 11.9181 12.2202 11.4423 12.3033C7.4297 13.0045 4.45936 11.366 2.64817 9.01888C0.8694 6.7138 0.174744 3.68091 0.708822 1.48075Z" fill="currentColor"/>
</svg>
