<svg width="12" height="14" viewBox="0 0 12 14" fill="none" xmlns="http://www.w3.org/2000/svg">
<path fill-rule="evenodd" clip-rule="evenodd" d="M10.2671 6.19998C10.2671 7.67817 9.35896 9.15579 8.15758 10.3572C7.5761 10.9386 6.97534 11.4043 6.49062 11.7167C6.29437 11.8432 6.12847 11.9372 6.00039 12.0015C5.87232 11.9372 5.70641 11.8432 5.51016 11.7167C5.02544 11.4043 4.42468 10.9386 3.8432 10.3572C2.64182 9.15579 1.73372 7.67817 1.73372 6.19998C1.73372 3.84356 3.64398 1.93331 6.00039 1.93331C8.35681 1.93331 10.2671 3.84356 10.2671 6.19998ZM5.80407 12.0884C5.79916 12.0898 5.7966 12.0906 5.79655 12.0907C5.79652 12.0908 5.7979 12.0904 5.80076 12.0895C5.80171 12.0892 5.80281 12.0888 5.80407 12.0884ZM6.19671 12.0884C6.20162 12.0898 6.20418 12.0906 6.20423 12.0907C6.20428 12.0908 6.20182 12.0901 6.19671 12.0884ZM11.6004 6.19998C11.6004 10.2 6.80039 13.4 6.00039 13.4C5.20039 13.4 0.400391 10.2 0.400391 6.19998C0.400391 3.10718 2.9076 0.599976 6.00039 0.599976C9.09319 0.599976 11.6004 3.10718 11.6004 6.19998ZM7.06709 6.19993C7.06709 6.78903 6.58953 7.26659 6.00042 7.26659C5.41132 7.26659 4.93376 6.78903 4.93376 6.19993C4.93376 5.61082 5.41132 5.13326 6.00042 5.13326C6.58953 5.13326 7.06709 5.61082 7.06709 6.19993ZM8.40042 6.19993C8.40042 7.52541 7.32591 8.59993 6.00042 8.59993C4.67494 8.59993 3.60042 7.52541 3.60042 6.19993C3.60042 4.87444 4.67494 3.79993 6.00042 3.79993C7.32591 3.79993 8.40042 4.87444 8.40042 6.19993Z" fill="currentColor"/>
</svg>
