<svg width="16" height="16" viewBox="0 0 16 16" fill="none" xmlns="http://www.w3.org/2000/svg">
<rect width="16" height="16"/>
<path fill-rule="evenodd" clip-rule="evenodd" d="M4.66667 6C5.40305 6 6 5.40305 6 4.66667C6 3.93029 5.40305 3.33333 4.66667 3.33333C3.93029 3.33333 3.33333 3.93029 3.33333 4.66667C3.33333 5.40305 3.93029 6 4.66667 6ZM4.66667 7.33333C6.13943 7.33333 7.33333 6.13943 7.33333 4.66667C7.33333 3.19391 6.13943 2 4.66667 2C3.19391 2 2 3.19391 2 4.66667C2 6.13943 3.19391 7.33333 4.66667 7.33333ZM11.3333 12.6667C12.0697 12.6667 12.6667 12.0697 12.6667 11.3333C12.6667 10.597 12.0697 10 11.3333 10C10.597 10 10 10.597 10 11.3333C10 12.0697 10.597 12.6667 11.3333 12.6667ZM11.3333 14C12.8061 14 14 12.8061 14 11.3333C14 9.86057 12.8061 8.66667 11.3333 8.66667C9.86057 8.66667 8.66667 9.86057 8.66667 11.3333C8.66667 12.8061 9.86057 14 11.3333 14ZM13.4277 3.31993C13.6359 3.11165 13.6359 2.77397 13.4277 2.56569L13.2391 2.37712C13.0308 2.16884 12.6931 2.16884 12.4849 2.37712L2.57244 12.2895C2.36416 12.4978 2.36416 12.8355 2.57244 13.0438L2.761 13.2324C2.96928 13.4406 3.30697 13.4406 3.51525 13.2324L13.4277 3.31993Z" fill="currentColor"/>
</svg>
