<svg width="24" height="24" viewBox="0 0 24 24" fill="none" xmlns="http://www.w3.org/2000/svg">
<path fill-rule="evenodd" clip-rule="evenodd" d="M16 10C16 13.3137 13.3137 16 10 16C6.68629 16 4 13.3137 4 10C4 6.68629 6.68629 4 10 4C13.3137 4 16 6.68629 16 10ZM14.9056 16.3199C13.551 17.3729 11.8487 18 10 18C5.58172 18 2 14.4183 2 10C2 5.58172 5.58172 2 10 2C14.4183 2 18 5.58172 18 10C18 11.8487 17.3729 13.551 16.3199 14.9056L21.1415 19.7273C21.4539 20.0397 21.4539 20.5462 21.1415 20.8587L20.8587 21.1415C20.5462 21.4539 20.0397 21.4539 19.7273 21.1415L14.9056 16.3199Z" fill="currentColor"/>
</svg>
