<svg width="24" height="24" viewBox="0 0 24 24" fill="none" xmlns="http://www.w3.org/2000/svg">
<rect width="24" height="24" rx="8" fill="#1A1F71"/>
<path d="M10.3809 15.0396H8.81445L9.79334 9.02173H11.3604L10.3809 15.0396Z" fill="white"/>
<path d="M7.49498 9.02173L6.00111 13.1606L5.82515 12.2697V12.2703L5.29787 9.56439C5.29787 9.56439 5.23449 9.02234 4.55462 9.02234H2.08556L2.05664 9.12448C2.05664 9.12448 2.81219 9.28137 3.6951 9.81235L5.05606 15.0403H6.68836L9.18081 9.02234H7.49498V9.02173Z" fill="white"/>
<path d="M19.8188 15.0396H21.2573L20.0028 9.02173H18.7433C18.1619 9.02173 18.0198 9.47026 18.0198 9.47026L15.6836 15.0396H17.3165L17.6432 14.1457H19.6348L19.8188 15.0396ZM18.0948 12.9108L18.918 10.659L19.3813 12.9108H18.0948Z" fill="white"/>
<path d="M15.8058 10.4691L16.0291 9.17641C16.0291 9.17641 15.3394 8.91431 14.6201 8.91431C13.8425 8.91431 11.9967 9.25455 11.9967 10.9065C11.9967 12.4613 14.1636 12.4804 14.1636 13.2968C14.1636 14.1133 12.22 13.9675 11.5789 13.4525L11.3457 14.8036C11.3457 14.8036 12.0453 15.1439 13.114 15.1439C14.1827 15.1439 15.7959 14.5901 15.7959 13.084C15.7959 11.5193 13.6093 11.3735 13.6093 10.6937C13.6099 10.0126 15.1357 10.0999 15.8058 10.4691Z" fill="white"/>
</svg>
