<svg width="24" height="24" viewBox="0 0 24 24" fill="none" xmlns="http://www.w3.org/2000/svg">
<path fill-rule="evenodd" clip-rule="evenodd" d="M21.4057 6.0714C22.0177 6.69067 22.2177 8.09819 22.2177 8.09819C22.2177 8.09819 22.4214 9.7505 22.4214 11.4046V12.9537C22.4214 14.606 22.2177 16.2584 22.2177 16.2584C22.2177 16.2584 22.0177 17.665 21.4057 18.2851C20.7054 19.0184 19.9285 19.094 19.49 19.1366C19.4424 19.1412 19.3988 19.1455 19.3597 19.1501C16.5018 19.3565 12.2107 19.3629 12.2107 19.3629C12.2107 19.3629 6.90121 19.3145 5.26717 19.1574C5.18908 19.1427 5.09423 19.1312 4.98674 19.1182C4.46939 19.0558 3.65926 18.9581 3.01568 18.2842C2.40372 17.665 2.2046 16.2574 2.2046 16.2574C2.2046 16.2574 2 14.6051 2 12.9528V11.4037C2 9.7505 2.2046 8.09819 2.2046 8.09819C2.2046 8.09819 2.40372 6.69158 3.01568 6.0714C3.71603 5.3381 4.49292 5.26257 4.93136 5.21994C4.97896 5.21532 5.02257 5.21108 5.06166 5.20642C7.91963 5 12.2061 5 12.2061 5H12.2153C12.2153 5 16.5018 5 19.3597 5.20642C19.3988 5.21108 19.4424 5.21532 19.49 5.21994C19.9285 5.26257 20.7054 5.3381 21.4057 6.0714ZM10.1019 9.09194L10.1028 14.8298L15.6196 11.9709L10.1019 9.09194Z" fill="currentColor"/>
</svg>
