<svg width="105" height="56" viewBox="0 0 105 56" fill="none" xmlns="http://www.w3.org/2000/svg">
<rect width="105" height="48" rx="12" fill="#FFE81D"/>
<path fill-rule="evenodd" clip-rule="evenodd" d="M23.3333 23C23.3333 24.8477 22.1982 26.6948 20.6965 28.1965C19.9696 28.9233 19.2187 29.5055 18.6128 29.8959C18.3674 30.054 18.1601 30.1715 18 30.2519C17.8399 30.1715 17.6325 30.054 17.3872 29.8959C16.7813 29.5055 16.0303 28.9233 15.3035 28.1965C13.8018 26.6948 12.6666 24.8477 12.6666 23C12.6666 20.0545 15.0545 17.6667 18 17.6667C20.9455 17.6667 23.3333 20.0545 23.3333 23ZM17.7546 30.3606C17.7484 30.3622 17.7452 30.3633 17.7452 30.3634C17.7451 30.3635 17.7469 30.3631 17.7504 30.3619C17.7516 30.3615 17.753 30.3611 17.7546 30.3606ZM18.2454 30.3606C18.2515 30.3622 18.2547 30.3633 18.2548 30.3634C18.2548 30.3635 18.2518 30.3627 18.2454 30.3606ZM25 23C25 28 19 32 18 32C17 32 11 28 11 23C11 19.134 14.134 16 18 16C21.866 16 25 19.134 25 23ZM19.3333 22.9999C19.3333 23.7363 18.7364 24.3333 18 24.3333C17.2636 24.3333 16.6667 23.7363 16.6667 22.9999C16.6667 22.2636 17.2636 21.6666 18 21.6666C18.7364 21.6666 19.3333 22.2636 19.3333 22.9999ZM21 22.9999C21 24.6568 19.6569 25.9999 18 25.9999C16.3432 25.9999 15 24.6568 15 22.9999C15 21.3431 16.3432 19.9999 18 19.9999C19.6569 19.9999 21 21.3431 21 22.9999Z" fill="#001E34"/>
<path d="M38.768 25.32L42.476 17.58H44.006V30H42.458V20.892L39.434 27.408H38.048L35.078 20.946V30H33.53V17.58H35.042L38.768 25.32ZM46.2552 27.372C46.2552 26.892 46.3332 26.49 46.4892 26.166C46.6572 25.83 46.8912 25.56 47.1912 25.356C47.4912 25.152 47.8452 25.008 48.2532 24.924C48.6732 24.84 49.1292 24.798 49.6212 24.798H51.7632V23.754C51.7632 23.118 51.6012 22.698 51.2772 22.494C50.9652 22.29 50.4612 22.188 49.7652 22.188C49.4892 22.188 49.2432 22.2 49.0272 22.224C48.8232 22.236 48.6372 22.278 48.4692 22.35C48.3012 22.41 48.1452 22.5 48.0012 22.62C47.8572 22.74 47.7252 22.902 47.6052 23.106L46.5252 22.35C46.8372 21.834 47.2452 21.456 47.7492 21.216C48.2532 20.976 48.9312 20.856 49.7832 20.856C50.9232 20.856 51.7752 21.072 52.3392 21.504C52.9152 21.924 53.2032 22.674 53.2032 23.754V30H51.7632V29.118C51.5112 29.538 51.2112 29.814 50.8632 29.946C50.5272 30.078 50.0652 30.144 49.4772 30.144C48.4212 30.144 47.6172 29.904 47.0652 29.424C46.5252 28.932 46.2552 28.248 46.2552 27.372ZM51.7632 26.022H49.6212C48.9012 26.022 48.3972 26.142 48.1092 26.382C47.8332 26.61 47.6952 26.952 47.6952 27.408C47.6952 27.912 47.8572 28.272 48.1812 28.488C48.5052 28.704 48.9372 28.812 49.4772 28.812C49.8132 28.812 50.1192 28.788 50.3952 28.74C50.6712 28.692 50.9112 28.59 51.1152 28.434C51.3192 28.278 51.4752 28.05 51.5832 27.75C51.7032 27.45 51.7632 27.048 51.7632 26.544V26.022ZM61.019 22.296H56.987V30H55.547V21H61.019V22.296ZM61.5657 27.372C61.5657 26.892 61.6437 26.49 61.7997 26.166C61.9677 25.83 62.2017 25.56 62.5017 25.356C62.8017 25.152 63.1557 25.008 63.5637 24.924C63.9837 24.84 64.4397 24.798 64.9317 24.798H67.0737V23.754C67.0737 23.118 66.9117 22.698 66.5877 22.494C66.2757 22.29 65.7717 22.188 65.0757 22.188C64.7997 22.188 64.5537 22.2 64.3377 22.224C64.1337 22.236 63.9477 22.278 63.7797 22.35C63.6117 22.41 63.4557 22.5 63.3117 22.62C63.1677 22.74 63.0357 22.902 62.9157 23.106L61.8357 22.35C62.1477 21.834 62.5557 21.456 63.0597 21.216C63.5637 20.976 64.2417 20.856 65.0937 20.856C66.2337 20.856 67.0857 21.072 67.6497 21.504C68.2257 21.924 68.5137 22.674 68.5137 23.754V30H67.0737V29.118C66.8217 29.538 66.5217 29.814 66.1737 29.946C65.8377 30.078 65.3757 30.144 64.7877 30.144C63.7317 30.144 62.9277 29.904 62.3757 29.424C61.8357 28.932 61.5657 28.248 61.5657 27.372ZM67.0737 26.022H64.9317C64.2117 26.022 63.7077 26.142 63.4197 26.382C63.1437 26.61 63.0057 26.952 63.0057 27.408C63.0057 27.912 63.1677 28.272 63.4917 28.488C63.8157 28.704 64.2477 28.812 64.7877 28.812C65.1237 28.812 65.4297 28.788 65.7057 28.74C65.9817 28.692 66.2217 28.59 66.4257 28.434C66.6297 28.278 66.7857 28.05 66.8937 27.75C67.0137 27.45 67.0737 27.048 67.0737 26.544V26.022ZM72.2255 24.636H73.0535C73.6535 24.636 74.1155 24.522 74.4395 24.294C74.7635 24.066 74.9255 23.742 74.9255 23.322C74.9255 22.986 74.7995 22.71 74.5475 22.494C74.2955 22.266 73.8875 22.152 73.3235 22.152C72.8915 22.152 72.5255 22.224 72.2255 22.368C71.9255 22.512 71.6375 22.74 71.3615 23.052L70.2275 22.26C70.3475 22.092 70.4915 21.924 70.6595 21.756C70.8395 21.588 71.0555 21.438 71.3075 21.306C71.5595 21.174 71.8535 21.066 72.1895 20.982C72.5375 20.898 72.9455 20.856 73.4135 20.856C73.8935 20.856 74.3255 20.916 74.7095 21.036C75.0935 21.144 75.4175 21.306 75.6815 21.522C75.9575 21.726 76.1675 21.966 76.3115 22.242C76.4675 22.518 76.5455 22.818 76.5455 23.142C76.5455 23.646 76.4195 24.066 76.1675 24.402C75.9155 24.726 75.5975 24.978 75.2135 25.158C75.6695 25.302 76.0595 25.572 76.3835 25.968C76.7195 26.352 76.8875 26.85 76.8875 27.462C76.8875 27.798 76.8215 28.128 76.6895 28.452C76.5575 28.764 76.3535 29.046 76.0775 29.298C75.8135 29.55 75.4655 29.754 75.0335 29.91C74.6015 30.066 74.0915 30.144 73.5035 30.144C72.6155 30.144 71.9015 30.018 71.3615 29.766C70.8215 29.514 70.4015 29.136 70.1015 28.632L71.2175 27.84C71.3855 28.092 71.6315 28.326 71.9555 28.542C72.2915 28.746 72.7895 28.848 73.4495 28.848C73.9775 28.848 74.4095 28.722 74.7455 28.47C75.0935 28.218 75.2675 27.84 75.2675 27.336C75.2675 26.88 75.0815 26.532 74.7095 26.292C74.3495 26.052 73.7795 25.932 72.9995 25.932H72.2255V24.636ZM80.3659 27.498L84.8479 21H86.2339V30H84.7939V23.376L80.2759 30H78.9259V21H80.3659V27.498ZM90.0163 24.78H94.2643V21H95.7043V30H94.2643V26.076H90.0163V30H88.5763V21H90.0163V24.78Z" fill="#001E34"/>
<path d="M51.2151 55.4337C48.9579 51.3118 44.5 48 44.5 48H60.5C60.5 48 55.9979 51.3446 53.5186 55.4948C53.0971 56.2003 51.61 56.1549 51.2151 55.4337Z" fill="#FFE81D"/>
</svg>
