<svg width="56" height="56" viewBox="0 0 56 56" fill="none" xmlns="http://www.w3.org/2000/svg">
<path d="M46.35 25.2001C46.35 31.7109 42.4237 37.7087 37.9661 42.1662C35.7554 44.377 33.4625 46.1589 31.5666 47.3806C30.6178 47.9921 29.7848 48.4527 29.125 48.7553C28.7947 48.9068 28.5232 49.0116 28.3129 49.0765C28.1089 49.1394 28.0136 49.1487 28.0012 49.1499C27.9998 49.1501 27.9994 49.1501 28 49.1501C28.0006 49.1501 28.0002 49.1501 27.9988 49.1499C27.9864 49.1487 27.8911 49.1394 27.6871 49.0765C27.4768 49.0116 27.2053 48.9068 26.875 48.7553C26.2152 48.4527 25.3822 47.9921 24.4334 47.3806C22.5375 46.1589 20.2446 44.377 18.0339 42.1662C13.5763 37.7087 9.65 31.7109 9.65 25.2001C9.65 15.0657 17.8656 6.8501 28 6.8501C38.1344 6.8501 46.35 15.0657 46.35 25.2001Z" fill="white" stroke="#FF3055" stroke-width="2.5"/>
<path d="M29.5754 34.6001H27.2554V23.3001L25.2754 24.6601V22.3201L27.3954 20.8001H29.5754V34.6001Z" fill="#FF3055"/>
</svg>
